M48
; DRILL file {KiCad (5.1.9)-1} date 01/03/21 12:46:33
; FORMAT={-:-/ absolute / inch / decimal}
; #@! TF.CreationDate,2021-01-03T12:46:33+00:00
; #@! TF.GenerationSoftware,Kicad,Pcbnew,(5.1.9)-1
; #@! TF.FileFunction,Plated,1,2,PTH
FMAT,2
INCH
T1C0.0157
T2C0.0276
T3C0.0591
%
G90
G05
T1
X4.6358Y-2.5295
X4.8228Y-2.1161
X4.8228Y-2.2933
X4.8425Y-1.624
X4.9409Y-2.5098
X5.0Y-1.8406
X5.0098Y-2.0276
X5.0886Y-2.4311
X5.1083Y-2.3524
X5.1378Y-2.2638
X5.1772Y-1.624
X5.187Y-1.8396
X5.1969Y-1.9783
X5.2067Y-1.9087
X5.2165Y-2.3031
X5.2249Y-2.2598
X5.2262Y-2.1233
X5.2953Y-2.4213
X5.2953Y-2.5787
X5.4035Y-1.6535
X5.4232Y-2.3425
X5.6299Y-1.7913
X5.6299Y-1.8996
T2
X4.0128Y-2.9016
X4.3199Y-2.9016
X4.7687Y-2.9016
X5.0758Y-2.9016
X5.5335Y-2.9062
X5.8406Y-2.9062
X6.2992Y-2.9016
X6.6063Y-2.9016
T3
X4.013Y-2.6217
X4.263Y-2.5217
X4.7732Y-2.6217
X5.0232Y-2.5217
X5.5331Y-2.6217
X5.7831Y-2.5217
X6.2926Y-2.6217
X6.5426Y-2.5217
T2
G00X5.1585Y-1.5453
M15
G01X5.1585Y-1.4469
M16
G05
G00X5.4459Y-1.5453
M15
G01X5.4459Y-1.4469
M16
G05
T0
M30
