%TF.GenerationSoftware,KiCad,Pcbnew,(5.1.9)-1*%
%TF.CreationDate,2021-01-03T12:45:44+00:00*%
%TF.ProjectId,Mechro_4K_PCB,4d656368-726f-45f3-944b-5f5043422e6b,rev?*%
%TF.SameCoordinates,Original*%
%TF.FileFunction,Legend,Bot*%
%TF.FilePolarity,Positive*%
%FSLAX46Y46*%
G04 Gerber Fmt 4.6, Leading zero omitted, Abs format (unit mm)*
G04 Created by KiCad (PCBNEW (5.1.9)-1) date 2021-01-03 12:45:44*
%MOMM*%
%LPD*%
G01*
G04 APERTURE LIST*
%ADD10C,0.150000*%
%ADD11C,0.120000*%
%ADD12C,0.200000*%
G04 APERTURE END LIST*
D10*
X139797619Y-77952380D02*
X139797619Y-76952380D01*
X139464285Y-77666666D01*
X139130952Y-76952380D01*
X139130952Y-77952380D01*
X138273809Y-77904761D02*
X138369047Y-77952380D01*
X138559523Y-77952380D01*
X138654761Y-77904761D01*
X138702380Y-77809523D01*
X138702380Y-77428571D01*
X138654761Y-77333333D01*
X138559523Y-77285714D01*
X138369047Y-77285714D01*
X138273809Y-77333333D01*
X138226190Y-77428571D01*
X138226190Y-77523809D01*
X138702380Y-77619047D01*
X137369047Y-77904761D02*
X137464285Y-77952380D01*
X137654761Y-77952380D01*
X137750000Y-77904761D01*
X137797619Y-77857142D01*
X137845238Y-77761904D01*
X137845238Y-77476190D01*
X137797619Y-77380952D01*
X137750000Y-77333333D01*
X137654761Y-77285714D01*
X137464285Y-77285714D01*
X137369047Y-77333333D01*
X136940476Y-77952380D02*
X136940476Y-76952380D01*
X136511904Y-77952380D02*
X136511904Y-77428571D01*
X136559523Y-77333333D01*
X136654761Y-77285714D01*
X136797619Y-77285714D01*
X136892857Y-77333333D01*
X136940476Y-77380952D01*
X136035714Y-77952380D02*
X136035714Y-77285714D01*
X136035714Y-77476190D02*
X135988095Y-77380952D01*
X135940476Y-77333333D01*
X135845238Y-77285714D01*
X135750000Y-77285714D01*
X135273809Y-77952380D02*
X135369047Y-77904761D01*
X135416666Y-77857142D01*
X135464285Y-77761904D01*
X135464285Y-77476190D01*
X135416666Y-77380952D01*
X135369047Y-77333333D01*
X135273809Y-77285714D01*
X135130952Y-77285714D01*
X135035714Y-77333333D01*
X134988095Y-77380952D01*
X134940476Y-77476190D01*
X134940476Y-77761904D01*
X134988095Y-77857142D01*
X135035714Y-77904761D01*
X135130952Y-77952380D01*
X135273809Y-77952380D01*
X133321428Y-77285714D02*
X133321428Y-77952380D01*
X133559523Y-76904761D02*
X133797619Y-77619047D01*
X133178571Y-77619047D01*
X132797619Y-77952380D02*
X132797619Y-76952380D01*
X132226190Y-77952380D02*
X132654761Y-77380952D01*
X132226190Y-76952380D02*
X132797619Y-77523809D01*
X131178571Y-76952380D02*
X130845238Y-77952380D01*
X130511904Y-76952380D01*
X129654761Y-77952380D02*
X130226190Y-77952380D01*
X129940476Y-77952380D02*
X129940476Y-76952380D01*
X130035714Y-77095238D01*
X130130952Y-77190476D01*
X130226190Y-77238095D01*
D11*
%TO.C,C1*%
X126852500Y-37017502D02*
X126852500Y-36494998D01*
X128322500Y-37017502D02*
X128322500Y-36494998D01*
%TO.C,C2*%
X142460000Y-37192502D02*
X142460000Y-36669998D01*
X140990000Y-37192502D02*
X140990000Y-36669998D01*
%TO.C,C3*%
X145985000Y-54507498D02*
X145985000Y-55030002D01*
X144515000Y-54507498D02*
X144515000Y-55030002D01*
%TO.C,C4*%
X144521250Y-46019998D02*
X144521250Y-46542502D01*
X145991250Y-46019998D02*
X145991250Y-46542502D01*
%TO.C,C5*%
X125385000Y-45698752D02*
X125385000Y-45176248D01*
X123915000Y-45698752D02*
X123915000Y-45176248D01*
%TO.C,C6*%
X123765000Y-36973752D02*
X123765000Y-36451248D01*
X125235000Y-36973752D02*
X125235000Y-36451248D01*
%TO.C,C7*%
X125358751Y-53992502D02*
X125358751Y-53469998D01*
X123888751Y-53992502D02*
X123888751Y-53469998D01*
%TO.C,C8*%
X123915000Y-49823752D02*
X123915000Y-49301248D01*
X125385000Y-49823752D02*
X125385000Y-49301248D01*
D12*
%TO.C,D1*%
X166700000Y-72500000D02*
X160900000Y-72500000D01*
X166700000Y-74900000D02*
X166700000Y-72500000D01*
X160900000Y-74900000D02*
X166700000Y-74900000D01*
X160975000Y-74900000D02*
X160975000Y-72500000D01*
X161100000Y-74900000D02*
X161100000Y-72500000D01*
X160875000Y-72500000D02*
X160875000Y-74900000D01*
X161275000Y-74900000D02*
X161275000Y-72500000D01*
X161450000Y-74900000D02*
X161450000Y-72500000D01*
X161625000Y-74900000D02*
X161625000Y-72500000D01*
%TO.C,D2*%
X122750000Y-74900000D02*
X122750000Y-72500000D01*
X122575000Y-74900000D02*
X122575000Y-72500000D01*
X122400000Y-74900000D02*
X122400000Y-72500000D01*
X122000000Y-72500000D02*
X122000000Y-74900000D01*
X122225000Y-74900000D02*
X122225000Y-72500000D01*
X122100000Y-74900000D02*
X122100000Y-72500000D01*
X122025000Y-74900000D02*
X127825000Y-74900000D01*
X127825000Y-74900000D02*
X127825000Y-72500000D01*
X127825000Y-72500000D02*
X122025000Y-72500000D01*
%TO.C,D3*%
X147250000Y-72618750D02*
X141450000Y-72618750D01*
X147250000Y-75018750D02*
X147250000Y-72618750D01*
X141450000Y-75018750D02*
X147250000Y-75018750D01*
X141525000Y-75018750D02*
X141525000Y-72618750D01*
X141650000Y-75018750D02*
X141650000Y-72618750D01*
X141425000Y-72618750D02*
X141425000Y-75018750D01*
X141825000Y-75018750D02*
X141825000Y-72618750D01*
X142000000Y-75018750D02*
X142000000Y-72618750D01*
X142175000Y-75018750D02*
X142175000Y-72618750D01*
%TO.C,D4*%
X103550000Y-74900000D02*
X103550000Y-72500000D01*
X103375000Y-74900000D02*
X103375000Y-72500000D01*
X103200000Y-74900000D02*
X103200000Y-72500000D01*
X102800000Y-72500000D02*
X102800000Y-74900000D01*
X103025000Y-74900000D02*
X103025000Y-72500000D01*
X102900000Y-74900000D02*
X102900000Y-72500000D01*
X102825000Y-74900000D02*
X108625000Y-74900000D01*
X108625000Y-74900000D02*
X108625000Y-72500000D01*
X108625000Y-72500000D02*
X102825000Y-72500000D01*
D11*
%TO.C,R1*%
X125322936Y-58685000D02*
X125777064Y-58685000D01*
X125322936Y-57215000D02*
X125777064Y-57215000D01*
%TO.C,R2*%
X145985000Y-50297936D02*
X145985000Y-50752064D01*
X144515000Y-50297936D02*
X144515000Y-50752064D01*
%TO.C,R3*%
X142247936Y-41860000D02*
X142702064Y-41860000D01*
X142247936Y-40390000D02*
X142702064Y-40390000D01*
%TO.C,R4*%
X125697936Y-40340000D02*
X126152064Y-40340000D01*
X125697936Y-41810000D02*
X126152064Y-41810000D01*
%TO.C,SW1*%
X132950000Y-60300000D02*
X133400000Y-59850000D01*
X136350000Y-60300000D02*
X135900000Y-59850000D01*
X136350000Y-64900000D02*
X135900000Y-65350000D01*
X132950000Y-64900000D02*
X133400000Y-65350000D01*
X137400000Y-63600000D02*
X137400000Y-61600000D01*
X133400000Y-59850000D02*
X135900000Y-59850000D01*
X131900000Y-63600000D02*
X131900000Y-61600000D01*
X133400000Y-65350000D02*
X135900000Y-65350000D01*
D10*
%TO.C,U1*%
X129556250Y-55181250D02*
X129556250Y-54606250D01*
X139906250Y-55181250D02*
X139906250Y-54506250D01*
X139906250Y-44831250D02*
X139906250Y-45506250D01*
X129556250Y-44831250D02*
X129556250Y-45506250D01*
X129556250Y-55181250D02*
X130231250Y-55181250D01*
X129556250Y-44831250D02*
X130231250Y-44831250D01*
X139906250Y-44831250D02*
X139231250Y-44831250D01*
X139906250Y-55181250D02*
X139231250Y-55181250D01*
X129556250Y-54606250D02*
X128281250Y-54606250D01*
D12*
%TO.C,X1*%
X131726046Y-38453553D02*
X134377697Y-41105204D01*
X134377697Y-41105204D02*
X137736454Y-37746447D01*
X137736454Y-37746447D02*
X135084803Y-35094796D01*
X135084803Y-35094796D02*
X131726046Y-38453553D01*
%TO.C,C1*%
D10*
X129624642Y-36589583D02*
X129672261Y-36541964D01*
X129719880Y-36399107D01*
X129719880Y-36303869D01*
X129672261Y-36161011D01*
X129577023Y-36065773D01*
X129481785Y-36018154D01*
X129291309Y-35970535D01*
X129148452Y-35970535D01*
X128957976Y-36018154D01*
X128862738Y-36065773D01*
X128767500Y-36161011D01*
X128719880Y-36303869D01*
X128719880Y-36399107D01*
X128767500Y-36541964D01*
X128815119Y-36589583D01*
X129719880Y-37541964D02*
X129719880Y-36970535D01*
X129719880Y-37256250D02*
X128719880Y-37256250D01*
X128862738Y-37161011D01*
X128957976Y-37065773D01*
X129005595Y-36970535D01*
%TO.C,C2*%
X143762142Y-36764583D02*
X143809761Y-36716964D01*
X143857380Y-36574107D01*
X143857380Y-36478869D01*
X143809761Y-36336011D01*
X143714523Y-36240773D01*
X143619285Y-36193154D01*
X143428809Y-36145535D01*
X143285952Y-36145535D01*
X143095476Y-36193154D01*
X143000238Y-36240773D01*
X142905000Y-36336011D01*
X142857380Y-36478869D01*
X142857380Y-36574107D01*
X142905000Y-36716964D01*
X142952619Y-36764583D01*
X142952619Y-37145535D02*
X142905000Y-37193154D01*
X142857380Y-37288392D01*
X142857380Y-37526488D01*
X142905000Y-37621726D01*
X142952619Y-37669345D01*
X143047857Y-37716964D01*
X143143095Y-37716964D01*
X143285952Y-37669345D01*
X143857380Y-37097916D01*
X143857380Y-37716964D01*
%TO.C,C3*%
X143927142Y-54602083D02*
X143974761Y-54554464D01*
X144022380Y-54411607D01*
X144022380Y-54316369D01*
X143974761Y-54173511D01*
X143879523Y-54078273D01*
X143784285Y-54030654D01*
X143593809Y-53983035D01*
X143450952Y-53983035D01*
X143260476Y-54030654D01*
X143165238Y-54078273D01*
X143070000Y-54173511D01*
X143022380Y-54316369D01*
X143022380Y-54411607D01*
X143070000Y-54554464D01*
X143117619Y-54602083D01*
X143022380Y-54935416D02*
X143022380Y-55554464D01*
X143403333Y-55221130D01*
X143403333Y-55363988D01*
X143450952Y-55459226D01*
X143498571Y-55506845D01*
X143593809Y-55554464D01*
X143831904Y-55554464D01*
X143927142Y-55506845D01*
X143974761Y-55459226D01*
X144022380Y-55363988D01*
X144022380Y-55078273D01*
X143974761Y-54983035D01*
X143927142Y-54935416D01*
%TO.C,C4*%
X143933392Y-46114583D02*
X143981011Y-46066964D01*
X144028630Y-45924107D01*
X144028630Y-45828869D01*
X143981011Y-45686011D01*
X143885773Y-45590773D01*
X143790535Y-45543154D01*
X143600059Y-45495535D01*
X143457202Y-45495535D01*
X143266726Y-45543154D01*
X143171488Y-45590773D01*
X143076250Y-45686011D01*
X143028630Y-45828869D01*
X143028630Y-45924107D01*
X143076250Y-46066964D01*
X143123869Y-46114583D01*
X143361964Y-46971726D02*
X144028630Y-46971726D01*
X142981011Y-46733630D02*
X143695297Y-46495535D01*
X143695297Y-47114583D01*
%TO.C,C5*%
X126687142Y-45270833D02*
X126734761Y-45223214D01*
X126782380Y-45080357D01*
X126782380Y-44985119D01*
X126734761Y-44842261D01*
X126639523Y-44747023D01*
X126544285Y-44699404D01*
X126353809Y-44651785D01*
X126210952Y-44651785D01*
X126020476Y-44699404D01*
X125925238Y-44747023D01*
X125830000Y-44842261D01*
X125782380Y-44985119D01*
X125782380Y-45080357D01*
X125830000Y-45223214D01*
X125877619Y-45270833D01*
X125782380Y-46175595D02*
X125782380Y-45699404D01*
X126258571Y-45651785D01*
X126210952Y-45699404D01*
X126163333Y-45794642D01*
X126163333Y-46032738D01*
X126210952Y-46127976D01*
X126258571Y-46175595D01*
X126353809Y-46223214D01*
X126591904Y-46223214D01*
X126687142Y-46175595D01*
X126734761Y-46127976D01*
X126782380Y-46032738D01*
X126782380Y-45794642D01*
X126734761Y-45699404D01*
X126687142Y-45651785D01*
%TO.C,C6*%
X121907142Y-36545833D02*
X121954761Y-36498214D01*
X122002380Y-36355357D01*
X122002380Y-36260119D01*
X121954761Y-36117261D01*
X121859523Y-36022023D01*
X121764285Y-35974404D01*
X121573809Y-35926785D01*
X121430952Y-35926785D01*
X121240476Y-35974404D01*
X121145238Y-36022023D01*
X121050000Y-36117261D01*
X121002380Y-36260119D01*
X121002380Y-36355357D01*
X121050000Y-36498214D01*
X121097619Y-36545833D01*
X121002380Y-37402976D02*
X121002380Y-37212500D01*
X121050000Y-37117261D01*
X121097619Y-37069642D01*
X121240476Y-36974404D01*
X121430952Y-36926785D01*
X121811904Y-36926785D01*
X121907142Y-36974404D01*
X121954761Y-37022023D01*
X122002380Y-37117261D01*
X122002380Y-37307738D01*
X121954761Y-37402976D01*
X121907142Y-37450595D01*
X121811904Y-37498214D01*
X121573809Y-37498214D01*
X121478571Y-37450595D01*
X121430952Y-37402976D01*
X121383333Y-37307738D01*
X121383333Y-37117261D01*
X121430952Y-37022023D01*
X121478571Y-36974404D01*
X121573809Y-36926785D01*
%TO.C,C7*%
X126660893Y-53564583D02*
X126708512Y-53516964D01*
X126756131Y-53374107D01*
X126756131Y-53278869D01*
X126708512Y-53136011D01*
X126613274Y-53040773D01*
X126518036Y-52993154D01*
X126327560Y-52945535D01*
X126184703Y-52945535D01*
X125994227Y-52993154D01*
X125898989Y-53040773D01*
X125803751Y-53136011D01*
X125756131Y-53278869D01*
X125756131Y-53374107D01*
X125803751Y-53516964D01*
X125851370Y-53564583D01*
X125756131Y-53897916D02*
X125756131Y-54564583D01*
X126756131Y-54136011D01*
%TO.C,C8*%
X126687142Y-49395833D02*
X126734761Y-49348214D01*
X126782380Y-49205357D01*
X126782380Y-49110119D01*
X126734761Y-48967261D01*
X126639523Y-48872023D01*
X126544285Y-48824404D01*
X126353809Y-48776785D01*
X126210952Y-48776785D01*
X126020476Y-48824404D01*
X125925238Y-48872023D01*
X125830000Y-48967261D01*
X125782380Y-49110119D01*
X125782380Y-49205357D01*
X125830000Y-49348214D01*
X125877619Y-49395833D01*
X126210952Y-49967261D02*
X126163333Y-49872023D01*
X126115714Y-49824404D01*
X126020476Y-49776785D01*
X125972857Y-49776785D01*
X125877619Y-49824404D01*
X125830000Y-49872023D01*
X125782380Y-49967261D01*
X125782380Y-50157738D01*
X125830000Y-50252976D01*
X125877619Y-50300595D01*
X125972857Y-50348214D01*
X126020476Y-50348214D01*
X126115714Y-50300595D01*
X126163333Y-50252976D01*
X126210952Y-50157738D01*
X126210952Y-49967261D01*
X126258571Y-49872023D01*
X126306190Y-49824404D01*
X126401428Y-49776785D01*
X126591904Y-49776785D01*
X126687142Y-49824404D01*
X126734761Y-49872023D01*
X126782380Y-49967261D01*
X126782380Y-50157738D01*
X126734761Y-50252976D01*
X126687142Y-50300595D01*
X126591904Y-50348214D01*
X126401428Y-50348214D01*
X126306190Y-50300595D01*
X126258571Y-50252976D01*
X126210952Y-50157738D01*
%TO.C,D1*%
X164490476Y-72136904D02*
X164490476Y-71336904D01*
X164300000Y-71336904D01*
X164185714Y-71375000D01*
X164109523Y-71451190D01*
X164071428Y-71527380D01*
X164033333Y-71679761D01*
X164033333Y-71794047D01*
X164071428Y-71946428D01*
X164109523Y-72022619D01*
X164185714Y-72098809D01*
X164300000Y-72136904D01*
X164490476Y-72136904D01*
X163271428Y-72136904D02*
X163728571Y-72136904D01*
X163500000Y-72136904D02*
X163500000Y-71336904D01*
X163576190Y-71451190D01*
X163652380Y-71527380D01*
X163728571Y-71565476D01*
%TO.C,D2*%
X125615476Y-72136904D02*
X125615476Y-71336904D01*
X125425000Y-71336904D01*
X125310714Y-71375000D01*
X125234523Y-71451190D01*
X125196428Y-71527380D01*
X125158333Y-71679761D01*
X125158333Y-71794047D01*
X125196428Y-71946428D01*
X125234523Y-72022619D01*
X125310714Y-72098809D01*
X125425000Y-72136904D01*
X125615476Y-72136904D01*
X124853571Y-71413095D02*
X124815476Y-71375000D01*
X124739285Y-71336904D01*
X124548809Y-71336904D01*
X124472619Y-71375000D01*
X124434523Y-71413095D01*
X124396428Y-71489285D01*
X124396428Y-71565476D01*
X124434523Y-71679761D01*
X124891666Y-72136904D01*
X124396428Y-72136904D01*
%TO.C,D3*%
X145040476Y-72255654D02*
X145040476Y-71455654D01*
X144850000Y-71455654D01*
X144735714Y-71493750D01*
X144659523Y-71569940D01*
X144621428Y-71646130D01*
X144583333Y-71798511D01*
X144583333Y-71912797D01*
X144621428Y-72065178D01*
X144659523Y-72141369D01*
X144735714Y-72217559D01*
X144850000Y-72255654D01*
X145040476Y-72255654D01*
X144316666Y-71455654D02*
X143821428Y-71455654D01*
X144088095Y-71760416D01*
X143973809Y-71760416D01*
X143897619Y-71798511D01*
X143859523Y-71836607D01*
X143821428Y-71912797D01*
X143821428Y-72103273D01*
X143859523Y-72179464D01*
X143897619Y-72217559D01*
X143973809Y-72255654D01*
X144202380Y-72255654D01*
X144278571Y-72217559D01*
X144316666Y-72179464D01*
%TO.C,D4*%
X106415476Y-72136904D02*
X106415476Y-71336904D01*
X106225000Y-71336904D01*
X106110714Y-71375000D01*
X106034523Y-71451190D01*
X105996428Y-71527380D01*
X105958333Y-71679761D01*
X105958333Y-71794047D01*
X105996428Y-71946428D01*
X106034523Y-72022619D01*
X106110714Y-72098809D01*
X106225000Y-72136904D01*
X106415476Y-72136904D01*
X105272619Y-71603571D02*
X105272619Y-72136904D01*
X105463095Y-71298809D02*
X105653571Y-71870238D01*
X105158333Y-71870238D01*
%TO.C,R1*%
X125716666Y-60052380D02*
X126050000Y-59576190D01*
X126288095Y-60052380D02*
X126288095Y-59052380D01*
X125907142Y-59052380D01*
X125811904Y-59100000D01*
X125764285Y-59147619D01*
X125716666Y-59242857D01*
X125716666Y-59385714D01*
X125764285Y-59480952D01*
X125811904Y-59528571D01*
X125907142Y-59576190D01*
X126288095Y-59576190D01*
X124764285Y-60052380D02*
X125335714Y-60052380D01*
X125050000Y-60052380D02*
X125050000Y-59052380D01*
X125145238Y-59195238D01*
X125240476Y-59290476D01*
X125335714Y-59338095D01*
%TO.C,R2*%
X144052380Y-50358333D02*
X143576190Y-50025000D01*
X144052380Y-49786904D02*
X143052380Y-49786904D01*
X143052380Y-50167857D01*
X143100000Y-50263095D01*
X143147619Y-50310714D01*
X143242857Y-50358333D01*
X143385714Y-50358333D01*
X143480952Y-50310714D01*
X143528571Y-50263095D01*
X143576190Y-50167857D01*
X143576190Y-49786904D01*
X143147619Y-50739285D02*
X143100000Y-50786904D01*
X143052380Y-50882142D01*
X143052380Y-51120238D01*
X143100000Y-51215476D01*
X143147619Y-51263095D01*
X143242857Y-51310714D01*
X143338095Y-51310714D01*
X143480952Y-51263095D01*
X144052380Y-50691666D01*
X144052380Y-51310714D01*
%TO.C,R3*%
X142641666Y-43227380D02*
X142975000Y-42751190D01*
X143213095Y-43227380D02*
X143213095Y-42227380D01*
X142832142Y-42227380D01*
X142736904Y-42275000D01*
X142689285Y-42322619D01*
X142641666Y-42417857D01*
X142641666Y-42560714D01*
X142689285Y-42655952D01*
X142736904Y-42703571D01*
X142832142Y-42751190D01*
X143213095Y-42751190D01*
X142308333Y-42227380D02*
X141689285Y-42227380D01*
X142022619Y-42608333D01*
X141879761Y-42608333D01*
X141784523Y-42655952D01*
X141736904Y-42703571D01*
X141689285Y-42798809D01*
X141689285Y-43036904D01*
X141736904Y-43132142D01*
X141784523Y-43179761D01*
X141879761Y-43227380D01*
X142165476Y-43227380D01*
X142260714Y-43179761D01*
X142308333Y-43132142D01*
%TO.C,R4*%
X126091666Y-43177380D02*
X126425000Y-42701190D01*
X126663095Y-43177380D02*
X126663095Y-42177380D01*
X126282142Y-42177380D01*
X126186904Y-42225000D01*
X126139285Y-42272619D01*
X126091666Y-42367857D01*
X126091666Y-42510714D01*
X126139285Y-42605952D01*
X126186904Y-42653571D01*
X126282142Y-42701190D01*
X126663095Y-42701190D01*
X125234523Y-42510714D02*
X125234523Y-43177380D01*
X125472619Y-42129761D02*
X125710714Y-42844047D01*
X125091666Y-42844047D01*
%TO.C,SW1*%
X135983333Y-66754761D02*
X135840476Y-66802380D01*
X135602380Y-66802380D01*
X135507142Y-66754761D01*
X135459523Y-66707142D01*
X135411904Y-66611904D01*
X135411904Y-66516666D01*
X135459523Y-66421428D01*
X135507142Y-66373809D01*
X135602380Y-66326190D01*
X135792857Y-66278571D01*
X135888095Y-66230952D01*
X135935714Y-66183333D01*
X135983333Y-66088095D01*
X135983333Y-65992857D01*
X135935714Y-65897619D01*
X135888095Y-65850000D01*
X135792857Y-65802380D01*
X135554761Y-65802380D01*
X135411904Y-65850000D01*
X135078571Y-65802380D02*
X134840476Y-66802380D01*
X134650000Y-66088095D01*
X134459523Y-66802380D01*
X134221428Y-65802380D01*
X133316666Y-66802380D02*
X133888095Y-66802380D01*
X133602380Y-66802380D02*
X133602380Y-65802380D01*
X133697619Y-65945238D01*
X133792857Y-66040476D01*
X133888095Y-66088095D01*
%TO.C,U1*%
X135493154Y-56908630D02*
X135493154Y-57718154D01*
X135445535Y-57813392D01*
X135397916Y-57861011D01*
X135302678Y-57908630D01*
X135112202Y-57908630D01*
X135016964Y-57861011D01*
X134969345Y-57813392D01*
X134921726Y-57718154D01*
X134921726Y-56908630D01*
X133921726Y-57908630D02*
X134493154Y-57908630D01*
X134207440Y-57908630D02*
X134207440Y-56908630D01*
X134302678Y-57051488D01*
X134397916Y-57146726D01*
X134493154Y-57194345D01*
%TD*%
M02*
