%TF.GenerationSoftware,KiCad,Pcbnew,(5.1.9)-1*%
%TF.CreationDate,2021-01-03T12:45:44+00:00*%
%TF.ProjectId,Mechro_4K_PCB,4d656368-726f-45f3-944b-5f5043422e6b,rev?*%
%TF.SameCoordinates,Original*%
%TF.FileFunction,Paste,Bot*%
%TF.FilePolarity,Positive*%
%FSLAX46Y46*%
G04 Gerber Fmt 4.6, Leading zero omitted, Abs format (unit mm)*
G04 Created by KiCad (PCBNEW (5.1.9)-1) date 2021-01-03 12:45:44*
%MOMM*%
%LPD*%
G01*
G04 APERTURE LIST*
%ADD10R,1.200000X1.200000*%
%ADD11R,1.700000X1.000000*%
%ADD12R,1.500000X0.550000*%
%ADD13R,0.550000X1.500000*%
%ADD14C,0.100000*%
G04 APERTURE END LIST*
%TO.C,C1*%
G36*
G01*
X128062500Y-36306250D02*
X127112500Y-36306250D01*
G75*
G02*
X126862500Y-36056250I0J250000D01*
G01*
X126862500Y-35381250D01*
G75*
G02*
X127112500Y-35131250I250000J0D01*
G01*
X128062500Y-35131250D01*
G75*
G02*
X128312500Y-35381250I0J-250000D01*
G01*
X128312500Y-36056250D01*
G75*
G02*
X128062500Y-36306250I-250000J0D01*
G01*
G37*
G36*
G01*
X128062500Y-38381250D02*
X127112500Y-38381250D01*
G75*
G02*
X126862500Y-38131250I0J250000D01*
G01*
X126862500Y-37456250D01*
G75*
G02*
X127112500Y-37206250I250000J0D01*
G01*
X128062500Y-37206250D01*
G75*
G02*
X128312500Y-37456250I0J-250000D01*
G01*
X128312500Y-38131250D01*
G75*
G02*
X128062500Y-38381250I-250000J0D01*
G01*
G37*
%TD*%
%TO.C,C2*%
G36*
G01*
X142200000Y-38556250D02*
X141250000Y-38556250D01*
G75*
G02*
X141000000Y-38306250I0J250000D01*
G01*
X141000000Y-37631250D01*
G75*
G02*
X141250000Y-37381250I250000J0D01*
G01*
X142200000Y-37381250D01*
G75*
G02*
X142450000Y-37631250I0J-250000D01*
G01*
X142450000Y-38306250D01*
G75*
G02*
X142200000Y-38556250I-250000J0D01*
G01*
G37*
G36*
G01*
X142200000Y-36481250D02*
X141250000Y-36481250D01*
G75*
G02*
X141000000Y-36231250I0J250000D01*
G01*
X141000000Y-35556250D01*
G75*
G02*
X141250000Y-35306250I250000J0D01*
G01*
X142200000Y-35306250D01*
G75*
G02*
X142450000Y-35556250I0J-250000D01*
G01*
X142450000Y-36231250D01*
G75*
G02*
X142200000Y-36481250I-250000J0D01*
G01*
G37*
%TD*%
%TO.C,C3*%
G36*
G01*
X144775000Y-55218750D02*
X145725000Y-55218750D01*
G75*
G02*
X145975000Y-55468750I0J-250000D01*
G01*
X145975000Y-56143750D01*
G75*
G02*
X145725000Y-56393750I-250000J0D01*
G01*
X144775000Y-56393750D01*
G75*
G02*
X144525000Y-56143750I0J250000D01*
G01*
X144525000Y-55468750D01*
G75*
G02*
X144775000Y-55218750I250000J0D01*
G01*
G37*
G36*
G01*
X144775000Y-53143750D02*
X145725000Y-53143750D01*
G75*
G02*
X145975000Y-53393750I0J-250000D01*
G01*
X145975000Y-54068750D01*
G75*
G02*
X145725000Y-54318750I-250000J0D01*
G01*
X144775000Y-54318750D01*
G75*
G02*
X144525000Y-54068750I0J250000D01*
G01*
X144525000Y-53393750D01*
G75*
G02*
X144775000Y-53143750I250000J0D01*
G01*
G37*
%TD*%
%TO.C,C4*%
G36*
G01*
X144781250Y-44656250D02*
X145731250Y-44656250D01*
G75*
G02*
X145981250Y-44906250I0J-250000D01*
G01*
X145981250Y-45581250D01*
G75*
G02*
X145731250Y-45831250I-250000J0D01*
G01*
X144781250Y-45831250D01*
G75*
G02*
X144531250Y-45581250I0J250000D01*
G01*
X144531250Y-44906250D01*
G75*
G02*
X144781250Y-44656250I250000J0D01*
G01*
G37*
G36*
G01*
X144781250Y-46731250D02*
X145731250Y-46731250D01*
G75*
G02*
X145981250Y-46981250I0J-250000D01*
G01*
X145981250Y-47656250D01*
G75*
G02*
X145731250Y-47906250I-250000J0D01*
G01*
X144781250Y-47906250D01*
G75*
G02*
X144531250Y-47656250I0J250000D01*
G01*
X144531250Y-46981250D01*
G75*
G02*
X144781250Y-46731250I250000J0D01*
G01*
G37*
%TD*%
%TO.C,C5*%
G36*
G01*
X125125000Y-47062500D02*
X124175000Y-47062500D01*
G75*
G02*
X123925000Y-46812500I0J250000D01*
G01*
X123925000Y-46137500D01*
G75*
G02*
X124175000Y-45887500I250000J0D01*
G01*
X125125000Y-45887500D01*
G75*
G02*
X125375000Y-46137500I0J-250000D01*
G01*
X125375000Y-46812500D01*
G75*
G02*
X125125000Y-47062500I-250000J0D01*
G01*
G37*
G36*
G01*
X125125000Y-44987500D02*
X124175000Y-44987500D01*
G75*
G02*
X123925000Y-44737500I0J250000D01*
G01*
X123925000Y-44062500D01*
G75*
G02*
X124175000Y-43812500I250000J0D01*
G01*
X125125000Y-43812500D01*
G75*
G02*
X125375000Y-44062500I0J-250000D01*
G01*
X125375000Y-44737500D01*
G75*
G02*
X125125000Y-44987500I-250000J0D01*
G01*
G37*
%TD*%
%TO.C,C6*%
G36*
G01*
X124975000Y-36262500D02*
X124025000Y-36262500D01*
G75*
G02*
X123775000Y-36012500I0J250000D01*
G01*
X123775000Y-35337500D01*
G75*
G02*
X124025000Y-35087500I250000J0D01*
G01*
X124975000Y-35087500D01*
G75*
G02*
X125225000Y-35337500I0J-250000D01*
G01*
X125225000Y-36012500D01*
G75*
G02*
X124975000Y-36262500I-250000J0D01*
G01*
G37*
G36*
G01*
X124975000Y-38337500D02*
X124025000Y-38337500D01*
G75*
G02*
X123775000Y-38087500I0J250000D01*
G01*
X123775000Y-37412500D01*
G75*
G02*
X124025000Y-37162500I250000J0D01*
G01*
X124975000Y-37162500D01*
G75*
G02*
X125225000Y-37412500I0J-250000D01*
G01*
X125225000Y-38087500D01*
G75*
G02*
X124975000Y-38337500I-250000J0D01*
G01*
G37*
%TD*%
%TO.C,C7*%
G36*
G01*
X125098751Y-55356250D02*
X124148751Y-55356250D01*
G75*
G02*
X123898751Y-55106250I0J250000D01*
G01*
X123898751Y-54431250D01*
G75*
G02*
X124148751Y-54181250I250000J0D01*
G01*
X125098751Y-54181250D01*
G75*
G02*
X125348751Y-54431250I0J-250000D01*
G01*
X125348751Y-55106250D01*
G75*
G02*
X125098751Y-55356250I-250000J0D01*
G01*
G37*
G36*
G01*
X125098751Y-53281250D02*
X124148751Y-53281250D01*
G75*
G02*
X123898751Y-53031250I0J250000D01*
G01*
X123898751Y-52356250D01*
G75*
G02*
X124148751Y-52106250I250000J0D01*
G01*
X125098751Y-52106250D01*
G75*
G02*
X125348751Y-52356250I0J-250000D01*
G01*
X125348751Y-53031250D01*
G75*
G02*
X125098751Y-53281250I-250000J0D01*
G01*
G37*
%TD*%
%TO.C,C8*%
G36*
G01*
X125125000Y-49112500D02*
X124175000Y-49112500D01*
G75*
G02*
X123925000Y-48862500I0J250000D01*
G01*
X123925000Y-48187500D01*
G75*
G02*
X124175000Y-47937500I250000J0D01*
G01*
X125125000Y-47937500D01*
G75*
G02*
X125375000Y-48187500I0J-250000D01*
G01*
X125375000Y-48862500D01*
G75*
G02*
X125125000Y-49112500I-250000J0D01*
G01*
G37*
G36*
G01*
X125125000Y-51187500D02*
X124175000Y-51187500D01*
G75*
G02*
X123925000Y-50937500I0J250000D01*
G01*
X123925000Y-50262500D01*
G75*
G02*
X124175000Y-50012500I250000J0D01*
G01*
X125125000Y-50012500D01*
G75*
G02*
X125375000Y-50262500I0J-250000D01*
G01*
X125375000Y-50937500D01*
G75*
G02*
X125125000Y-51187500I-250000J0D01*
G01*
G37*
%TD*%
D10*
%TO.C,D1*%
X162325000Y-73700000D03*
X165475000Y-73700000D03*
%TD*%
%TO.C,D2*%
X126600000Y-73700000D03*
X123450000Y-73700000D03*
%TD*%
%TO.C,D3*%
X142875000Y-73818750D03*
X146025000Y-73818750D03*
%TD*%
%TO.C,D4*%
X107400000Y-73700000D03*
X104250000Y-73700000D03*
%TD*%
%TO.C,R1*%
G36*
G01*
X123950000Y-58400001D02*
X123950000Y-57499999D01*
G75*
G02*
X124199999Y-57250000I249999J0D01*
G01*
X124900001Y-57250000D01*
G75*
G02*
X125150000Y-57499999I0J-249999D01*
G01*
X125150000Y-58400001D01*
G75*
G02*
X124900001Y-58650000I-249999J0D01*
G01*
X124199999Y-58650000D01*
G75*
G02*
X123950000Y-58400001I0J249999D01*
G01*
G37*
G36*
G01*
X125950000Y-58400001D02*
X125950000Y-57499999D01*
G75*
G02*
X126199999Y-57250000I249999J0D01*
G01*
X126900001Y-57250000D01*
G75*
G02*
X127150000Y-57499999I0J-249999D01*
G01*
X127150000Y-58400001D01*
G75*
G02*
X126900001Y-58650000I-249999J0D01*
G01*
X126199999Y-58650000D01*
G75*
G02*
X125950000Y-58400001I0J249999D01*
G01*
G37*
%TD*%
%TO.C,R2*%
G36*
G01*
X144799999Y-50925000D02*
X145700001Y-50925000D01*
G75*
G02*
X145950000Y-51174999I0J-249999D01*
G01*
X145950000Y-51875001D01*
G75*
G02*
X145700001Y-52125000I-249999J0D01*
G01*
X144799999Y-52125000D01*
G75*
G02*
X144550000Y-51875001I0J249999D01*
G01*
X144550000Y-51174999D01*
G75*
G02*
X144799999Y-50925000I249999J0D01*
G01*
G37*
G36*
G01*
X144799999Y-48925000D02*
X145700001Y-48925000D01*
G75*
G02*
X145950000Y-49174999I0J-249999D01*
G01*
X145950000Y-49875001D01*
G75*
G02*
X145700001Y-50125000I-249999J0D01*
G01*
X144799999Y-50125000D01*
G75*
G02*
X144550000Y-49875001I0J249999D01*
G01*
X144550000Y-49174999D01*
G75*
G02*
X144799999Y-48925000I249999J0D01*
G01*
G37*
%TD*%
%TO.C,R3*%
G36*
G01*
X140875000Y-41575001D02*
X140875000Y-40674999D01*
G75*
G02*
X141124999Y-40425000I249999J0D01*
G01*
X141825001Y-40425000D01*
G75*
G02*
X142075000Y-40674999I0J-249999D01*
G01*
X142075000Y-41575001D01*
G75*
G02*
X141825001Y-41825000I-249999J0D01*
G01*
X141124999Y-41825000D01*
G75*
G02*
X140875000Y-41575001I0J249999D01*
G01*
G37*
G36*
G01*
X142875000Y-41575001D02*
X142875000Y-40674999D01*
G75*
G02*
X143124999Y-40425000I249999J0D01*
G01*
X143825001Y-40425000D01*
G75*
G02*
X144075000Y-40674999I0J-249999D01*
G01*
X144075000Y-41575001D01*
G75*
G02*
X143825001Y-41825000I-249999J0D01*
G01*
X143124999Y-41825000D01*
G75*
G02*
X142875000Y-41575001I0J249999D01*
G01*
G37*
%TD*%
%TO.C,R4*%
G36*
G01*
X126325000Y-41525001D02*
X126325000Y-40624999D01*
G75*
G02*
X126574999Y-40375000I249999J0D01*
G01*
X127275001Y-40375000D01*
G75*
G02*
X127525000Y-40624999I0J-249999D01*
G01*
X127525000Y-41525001D01*
G75*
G02*
X127275001Y-41775000I-249999J0D01*
G01*
X126574999Y-41775000D01*
G75*
G02*
X126325000Y-41525001I0J249999D01*
G01*
G37*
G36*
G01*
X124325000Y-41525001D02*
X124325000Y-40624999D01*
G75*
G02*
X124574999Y-40375000I249999J0D01*
G01*
X125275001Y-40375000D01*
G75*
G02*
X125525000Y-40624999I0J-249999D01*
G01*
X125525000Y-41525001D01*
G75*
G02*
X125275001Y-41775000I-249999J0D01*
G01*
X124574999Y-41775000D01*
G75*
G02*
X124325000Y-41525001I0J249999D01*
G01*
G37*
%TD*%
D11*
%TO.C,SW1*%
X131500000Y-64500000D03*
X137800000Y-64500000D03*
X131500000Y-60700000D03*
X137800000Y-60700000D03*
%TD*%
D12*
%TO.C,U1*%
X129031250Y-54006250D03*
X129031250Y-53206250D03*
X129031250Y-52406250D03*
X129031250Y-51606250D03*
X129031250Y-50806250D03*
X129031250Y-50006250D03*
X129031250Y-49206250D03*
X129031250Y-48406250D03*
X129031250Y-47606250D03*
X129031250Y-46806250D03*
X129031250Y-46006250D03*
D13*
X130731250Y-44306250D03*
X131531250Y-44306250D03*
X132331250Y-44306250D03*
X133131250Y-44306250D03*
X133931250Y-44306250D03*
X134731250Y-44306250D03*
X135531250Y-44306250D03*
X136331250Y-44306250D03*
X137131250Y-44306250D03*
X137931250Y-44306250D03*
X138731250Y-44306250D03*
D12*
X140431250Y-46006250D03*
X140431250Y-46806250D03*
X140431250Y-47606250D03*
X140431250Y-48406250D03*
X140431250Y-49206250D03*
X140431250Y-50006250D03*
X140431250Y-50806250D03*
X140431250Y-51606250D03*
X140431250Y-52406250D03*
X140431250Y-53206250D03*
X140431250Y-54006250D03*
D13*
X138731250Y-55706250D03*
X137931250Y-55706250D03*
X137131250Y-55706250D03*
X136331250Y-55706250D03*
X135531250Y-55706250D03*
X134731250Y-55706250D03*
X133931250Y-55706250D03*
X133131250Y-55706250D03*
X132331250Y-55706250D03*
X131531250Y-55706250D03*
X130731250Y-55706250D03*
%TD*%
D14*
%TO.C,X1*%
G36*
X134413052Y-40468808D02*
G01*
X133564524Y-39620280D01*
X134554474Y-38630330D01*
X135403002Y-39478858D01*
X134413052Y-40468808D01*
G37*
G36*
X136110108Y-38771752D02*
G01*
X135261580Y-37923224D01*
X136251530Y-36933274D01*
X137100058Y-37781802D01*
X136110108Y-38771752D01*
G37*
G36*
X133210970Y-39266726D02*
G01*
X132362442Y-38418198D01*
X133352392Y-37428248D01*
X134200920Y-38276776D01*
X133210970Y-39266726D01*
G37*
G36*
X134908026Y-37569670D02*
G01*
X134059498Y-36721142D01*
X135049448Y-35731192D01*
X135897976Y-36579720D01*
X134908026Y-37569670D01*
G37*
%TD*%
M02*
