%TF.GenerationSoftware,KiCad,Pcbnew,(5.1.9)-1*%
%TF.CreationDate,2021-01-03T12:45:43+00:00*%
%TF.ProjectId,Mechro_4K_PCB,4d656368-726f-45f3-944b-5f5043422e6b,rev?*%
%TF.SameCoordinates,Original*%
%TF.FileFunction,Copper,L1,Top*%
%TF.FilePolarity,Positive*%
%FSLAX46Y46*%
G04 Gerber Fmt 4.6, Leading zero omitted, Abs format (unit mm)*
G04 Created by KiCad (PCBNEW (5.1.9)-1) date 2021-01-03 12:45:43*
%MOMM*%
%LPD*%
G01*
G04 APERTURE LIST*
%TA.AperFunction,ComponentPad*%
%ADD10C,1.600000*%
%TD*%
%TA.AperFunction,ComponentPad*%
%ADD11R,1.600000X1.600000*%
%TD*%
%TA.AperFunction,ComponentPad*%
%ADD12O,1.500000X4.000000*%
%TD*%
%TA.AperFunction,SMDPad,CuDef*%
%ADD13R,0.500000X1.400000*%
%TD*%
%TA.AperFunction,SMDPad,CuDef*%
%ADD14R,2.350000X0.800000*%
%TD*%
%TA.AperFunction,ComponentPad*%
%ADD15C,2.200000*%
%TD*%
%TA.AperFunction,ViaPad*%
%ADD16C,0.800000*%
%TD*%
%TA.AperFunction,Conductor*%
%ADD17C,0.250000*%
%TD*%
%TA.AperFunction,Conductor*%
%ADD18C,0.254000*%
%TD*%
%TA.AperFunction,Conductor*%
%ADD19C,0.100000*%
%TD*%
G04 APERTURE END LIST*
D10*
%TO.P,D1,2*%
%TO.N,Net-(D1-Pad2)*%
X167800000Y-73700000D03*
D11*
%TO.P,D1,1*%
%TO.N,/row0*%
X160000000Y-73700000D03*
%TD*%
%TO.P,D2,1*%
%TO.N,/row1*%
X121125000Y-73700000D03*
D10*
%TO.P,D2,2*%
%TO.N,Net-(D2-Pad2)*%
X128925000Y-73700000D03*
%TD*%
%TO.P,D3,2*%
%TO.N,Net-(D3-Pad2)*%
X148350000Y-73818750D03*
D11*
%TO.P,D3,1*%
%TO.N,/row0*%
X140550000Y-73818750D03*
%TD*%
%TO.P,D4,1*%
%TO.N,/row1*%
X101925000Y-73700000D03*
D10*
%TO.P,D4,2*%
%TO.N,Net-(D4-Pad2)*%
X109725000Y-73700000D03*
%TD*%
D12*
%TO.P,J1,6*%
%TO.N,GND*%
X131025000Y-38000000D03*
X138325000Y-38000000D03*
D13*
%TO.P,J1,5*%
X133075000Y-40400000D03*
%TO.P,J1,4*%
%TO.N,Net-(J1-Pad4)*%
X133875000Y-40400000D03*
%TO.P,J1,3*%
%TO.N,Net-(J1-Pad3)*%
X134675000Y-40400000D03*
%TO.P,J1,2*%
%TO.N,Net-(J1-Pad2)*%
X135475000Y-40400000D03*
%TO.P,J1,1*%
%TO.N,VCC*%
X136275000Y-40400000D03*
D14*
%TO.P,J1,6*%
%TO.N,GND*%
X137350000Y-35200000D03*
X132000000Y-35200000D03*
%TD*%
D15*
%TO.P,K1,1*%
%TO.N,/col0*%
X166181250Y-64051251D03*
%TO.P,K1,2*%
%TO.N,Net-(D1-Pad2)*%
X159831250Y-66591251D03*
%TD*%
%TO.P,K2,1*%
%TO.N,/col0*%
X127590001Y-64051251D03*
%TO.P,K2,2*%
%TO.N,Net-(D2-Pad2)*%
X121240001Y-66591251D03*
%TD*%
%TO.P,K3,2*%
%TO.N,Net-(D3-Pad2)*%
X140540001Y-66591251D03*
%TO.P,K3,1*%
%TO.N,/col1*%
X146890001Y-64051251D03*
%TD*%
%TO.P,K4,2*%
%TO.N,Net-(D4-Pad2)*%
X101931250Y-66591251D03*
%TO.P,K4,1*%
%TO.N,/col1*%
X108281250Y-64051251D03*
%TD*%
D16*
%TO.N,GND*%
X143000000Y-48250000D03*
X143000000Y-45500000D03*
X131500000Y-41250000D03*
X130500000Y-57500000D03*
%TO.N,VCC*%
X122500000Y-53750000D03*
%TO.N,/row0*%
X134500000Y-65500000D03*
X134500000Y-61500000D03*
X132712988Y-57399535D03*
%TO.N,/row1*%
X117750000Y-64250000D03*
X122500000Y-58250000D03*
X132746424Y-53931250D03*
%TO.N,Net-(J1-Pad2)*%
X137250000Y-42000000D03*
%TO.N,Net-(J1-Pad3)*%
X123000000Y-41250000D03*
%TO.N,/col0*%
X125500000Y-63750000D03*
X129250000Y-61750000D03*
X132500000Y-58500000D03*
%TO.N,/col1*%
X129750000Y-59750000D03*
%TO.N,Net-(R1-Pad1)*%
X137750000Y-59500000D03*
X131750000Y-46725000D03*
%TO.N,Net-(R3-Pad2)*%
X132000000Y-50250000D03*
X132250000Y-48481250D03*
%TO.N,Net-(R4-Pad2)*%
X127250000Y-51500000D03*
X127000000Y-46750000D03*
%TD*%
D17*
%TO.N,GND*%
X143000000Y-48250000D02*
X143000000Y-45500000D01*
X133075000Y-40050000D02*
X131025000Y-38000000D01*
X133075000Y-40400000D02*
X133075000Y-40050000D01*
X132225000Y-41250000D02*
X133075000Y-40400000D01*
X131500000Y-41250000D02*
X132225000Y-41250000D01*
%TO.N,VCC*%
X138400000Y-40400000D02*
X136275000Y-40400000D01*
X139250000Y-41250000D02*
X138400000Y-40400000D01*
X139250000Y-42500000D02*
X139250000Y-41250000D01*
X123000000Y-43000000D02*
X138750000Y-43000000D01*
X138750000Y-43000000D02*
X139250000Y-42500000D01*
X122500000Y-43500000D02*
X123000000Y-43000000D01*
X122500000Y-53750000D02*
X122500000Y-43500000D01*
%TO.N,Net-(D1-Pad2)*%
X167800000Y-73700000D02*
X166250000Y-72150000D01*
X164542252Y-66591251D02*
X159831250Y-66591251D01*
X166250000Y-68298999D02*
X164542252Y-66591251D01*
X166250000Y-72150000D02*
X166250000Y-68298999D01*
%TO.N,/row0*%
X160000000Y-73700000D02*
X158450000Y-75250000D01*
X141981250Y-75250000D02*
X140550000Y-73818750D01*
X158450000Y-75250000D02*
X141981250Y-75250000D01*
X134500000Y-67768750D02*
X134500000Y-65500000D01*
X140550000Y-73818750D02*
X134500000Y-67768750D01*
X134500000Y-59186547D02*
X132712988Y-57399535D01*
X134500000Y-61500000D02*
X134500000Y-59186547D01*
%TO.N,Net-(D2-Pad2)*%
X128925000Y-73700000D02*
X127750000Y-72525000D01*
X125951003Y-66591251D02*
X121240001Y-66591251D01*
X127750000Y-68390248D02*
X125951003Y-66591251D01*
X127750000Y-72525000D02*
X127750000Y-68390248D01*
%TO.N,/row1*%
X121125000Y-73700000D02*
X119575000Y-75250000D01*
X103475000Y-75250000D02*
X101925000Y-73700000D01*
X119575000Y-75250000D02*
X103475000Y-75250000D01*
X121125000Y-73700000D02*
X121125000Y-72875000D01*
X117750000Y-69500000D02*
X117750000Y-64250000D01*
X121125000Y-72875000D02*
X117750000Y-69500000D01*
X122500000Y-58250000D02*
X127000000Y-53750000D01*
X132565174Y-53750000D02*
X132746424Y-53931250D01*
X127000000Y-53750000D02*
X132565174Y-53750000D01*
%TO.N,Net-(D3-Pad2)*%
X148350000Y-73818750D02*
X147250000Y-72718750D01*
X145251003Y-66591251D02*
X140540001Y-66591251D01*
X147250000Y-68590248D02*
X145251003Y-66591251D01*
X147250000Y-72718750D02*
X147250000Y-68590248D01*
%TO.N,Net-(D4-Pad2)*%
X109725000Y-73700000D02*
X108750000Y-72725000D01*
X106642252Y-66591251D02*
X101931250Y-66591251D01*
X108750000Y-68698999D02*
X106642252Y-66591251D01*
X108750000Y-72725000D02*
X108750000Y-68698999D01*
%TO.N,Net-(J1-Pad2)*%
X135475000Y-41135002D02*
X135475000Y-40400000D01*
X136339998Y-42000000D02*
X135475000Y-41135002D01*
X137250000Y-42000000D02*
X136339998Y-42000000D01*
%TO.N,Net-(J1-Pad3)*%
X123000000Y-41250000D02*
X123000000Y-42250000D01*
X134675000Y-41135002D02*
X134675000Y-40400000D01*
X133560002Y-42250000D02*
X134675000Y-41135002D01*
X123000000Y-42250000D02*
X133560002Y-42250000D01*
%TO.N,/col0*%
X160262248Y-64051251D02*
X166181250Y-64051251D01*
X158837247Y-65476252D02*
X160262248Y-64051251D01*
X146206000Y-65476252D02*
X158837247Y-65476252D01*
X144780999Y-64051251D02*
X146206000Y-65476252D01*
X127590001Y-64051251D02*
X144780999Y-64051251D01*
X125801251Y-64051251D02*
X125500000Y-63750000D01*
X127590001Y-64051251D02*
X125801251Y-64051251D01*
X129250000Y-61750000D02*
X132500000Y-58500000D01*
%TO.N,/col1*%
X109706251Y-62626250D02*
X108281250Y-64051251D01*
X145465000Y-62626250D02*
X109706251Y-62626250D01*
X146890001Y-64051251D02*
X145465000Y-62626250D01*
X108281250Y-64051251D02*
X108281250Y-61968750D01*
X110500000Y-59750000D02*
X129750000Y-59750000D01*
X108281250Y-61968750D02*
X110500000Y-59750000D01*
%TO.N,Net-(R1-Pad1)*%
X137750000Y-52725000D02*
X131750000Y-46725000D01*
X137750000Y-59500000D02*
X137750000Y-52725000D01*
%TO.N,Net-(R3-Pad2)*%
X132000000Y-48731250D02*
X132250000Y-48481250D01*
X132000000Y-50250000D02*
X132000000Y-48731250D01*
%TO.N,Net-(R4-Pad2)*%
X127250000Y-47000000D02*
X127000000Y-46750000D01*
X127250000Y-51500000D02*
X127250000Y-47000000D01*
%TD*%
D18*
%TO.N,GND*%
X146815001Y-57967571D02*
X146811807Y-58000000D01*
X146824550Y-58129383D01*
X146862290Y-58253793D01*
X146923575Y-58368450D01*
X147006052Y-58468948D01*
X147106550Y-58551425D01*
X147221207Y-58612710D01*
X147345617Y-58650450D01*
X147442581Y-58660000D01*
X147475000Y-58663193D01*
X147507419Y-58660000D01*
X173117721Y-58660000D01*
X173331967Y-58681007D01*
X173506998Y-58733852D01*
X173668435Y-58819690D01*
X173810127Y-58935250D01*
X173926671Y-59076127D01*
X174013633Y-59236960D01*
X174067701Y-59411625D01*
X174089969Y-59623497D01*
X174065043Y-78617279D01*
X174043993Y-78831968D01*
X173991149Y-79006997D01*
X173905309Y-79168436D01*
X173789750Y-79310126D01*
X173648869Y-79426673D01*
X173488040Y-79513633D01*
X173313374Y-79567701D01*
X173101282Y-79589993D01*
X96282391Y-79565011D01*
X96068032Y-79543993D01*
X95893003Y-79491149D01*
X95731564Y-79405309D01*
X95589874Y-79289750D01*
X95473327Y-79148869D01*
X95386367Y-78988040D01*
X95332299Y-78813374D01*
X95310000Y-78601213D01*
X95310000Y-68984991D01*
X99176250Y-68984991D01*
X99176250Y-69277511D01*
X99233318Y-69564409D01*
X99345260Y-69834662D01*
X99507775Y-70077883D01*
X99714618Y-70284726D01*
X99957839Y-70447241D01*
X100228092Y-70559183D01*
X100514990Y-70616251D01*
X100807510Y-70616251D01*
X101094408Y-70559183D01*
X101364661Y-70447241D01*
X101607882Y-70284726D01*
X101814725Y-70077883D01*
X101977240Y-69834662D01*
X102089182Y-69564409D01*
X102146250Y-69277511D01*
X102146250Y-68984991D01*
X102089182Y-68698093D01*
X101977240Y-68427840D01*
X101909360Y-68326251D01*
X102102133Y-68326251D01*
X102437331Y-68259576D01*
X102753081Y-68128788D01*
X103037248Y-67938914D01*
X103278913Y-67697249D01*
X103468787Y-67413082D01*
X103494398Y-67351251D01*
X103794797Y-67351251D01*
X103694512Y-67451536D01*
X103406143Y-67883110D01*
X103207511Y-68362650D01*
X103106250Y-68871726D01*
X103106250Y-69390776D01*
X103207511Y-69899852D01*
X103406143Y-70379392D01*
X103694512Y-70810966D01*
X104061535Y-71177989D01*
X104493109Y-71466358D01*
X104972649Y-71664990D01*
X105481725Y-71766251D01*
X106000775Y-71766251D01*
X106509851Y-71664990D01*
X106989391Y-71466358D01*
X107420965Y-71177989D01*
X107787988Y-70810966D01*
X107990001Y-70508633D01*
X107990000Y-72687677D01*
X107986324Y-72725000D01*
X107990000Y-72762322D01*
X107990000Y-72762332D01*
X108000997Y-72873985D01*
X108037540Y-72994454D01*
X108044454Y-73017246D01*
X108115026Y-73149276D01*
X108129774Y-73167246D01*
X108209999Y-73265001D01*
X108239002Y-73288804D01*
X108326312Y-73376113D01*
X108290000Y-73558665D01*
X108290000Y-73841335D01*
X108345147Y-74118574D01*
X108453320Y-74379727D01*
X108527002Y-74490000D01*
X103789802Y-74490000D01*
X103363072Y-74063270D01*
X103363072Y-72900000D01*
X103350812Y-72775518D01*
X103314502Y-72655820D01*
X103255537Y-72545506D01*
X103176185Y-72448815D01*
X103079494Y-72369463D01*
X102969180Y-72310498D01*
X102849482Y-72274188D01*
X102725000Y-72261928D01*
X101125000Y-72261928D01*
X101000518Y-72274188D01*
X100880820Y-72310498D01*
X100770506Y-72369463D01*
X100673815Y-72448815D01*
X100594463Y-72545506D01*
X100535498Y-72655820D01*
X100499188Y-72775518D01*
X100486928Y-72900000D01*
X100486928Y-74500000D01*
X100499188Y-74624482D01*
X100535498Y-74744180D01*
X100594463Y-74854494D01*
X100673815Y-74951185D01*
X100770506Y-75030537D01*
X100880820Y-75089502D01*
X101000518Y-75125812D01*
X101125000Y-75138072D01*
X102288270Y-75138072D01*
X102911201Y-75761003D01*
X102934999Y-75790001D01*
X102963997Y-75813799D01*
X103050723Y-75884974D01*
X103182753Y-75955546D01*
X103326014Y-75999003D01*
X103437667Y-76010000D01*
X103437677Y-76010000D01*
X103474999Y-76013676D01*
X103512322Y-76010000D01*
X119537678Y-76010000D01*
X119575000Y-76013676D01*
X119612322Y-76010000D01*
X119612333Y-76010000D01*
X119723986Y-75999003D01*
X119867247Y-75955546D01*
X119999276Y-75884974D01*
X120115001Y-75790001D01*
X120138804Y-75760997D01*
X120761729Y-75138072D01*
X121925000Y-75138072D01*
X122049482Y-75125812D01*
X122169180Y-75089502D01*
X122279494Y-75030537D01*
X122376185Y-74951185D01*
X122455537Y-74854494D01*
X122514502Y-74744180D01*
X122550812Y-74624482D01*
X122563072Y-74500000D01*
X122563072Y-72900000D01*
X122550812Y-72775518D01*
X122514502Y-72655820D01*
X122455537Y-72545506D01*
X122376185Y-72448815D01*
X122279494Y-72369463D01*
X122169180Y-72310498D01*
X122049482Y-72274188D01*
X121925000Y-72261928D01*
X121586730Y-72261928D01*
X119941052Y-70616251D01*
X120116261Y-70616251D01*
X120403159Y-70559183D01*
X120673412Y-70447241D01*
X120916633Y-70284726D01*
X121123476Y-70077883D01*
X121285991Y-69834662D01*
X121397933Y-69564409D01*
X121455001Y-69277511D01*
X121455001Y-68984991D01*
X121397933Y-68698093D01*
X121285991Y-68427840D01*
X121218111Y-68326251D01*
X121410884Y-68326251D01*
X121746082Y-68259576D01*
X122061832Y-68128788D01*
X122345999Y-67938914D01*
X122587664Y-67697249D01*
X122777538Y-67413082D01*
X122803149Y-67351251D01*
X123103548Y-67351251D01*
X123003263Y-67451536D01*
X122714894Y-67883110D01*
X122516262Y-68362650D01*
X122415001Y-68871726D01*
X122415001Y-69390776D01*
X122516262Y-69899852D01*
X122714894Y-70379392D01*
X123003263Y-70810966D01*
X123370286Y-71177989D01*
X123801860Y-71466358D01*
X124281400Y-71664990D01*
X124790476Y-71766251D01*
X125309526Y-71766251D01*
X125818602Y-71664990D01*
X126298142Y-71466358D01*
X126729716Y-71177989D01*
X126990000Y-70917705D01*
X126990000Y-72487677D01*
X126986324Y-72525000D01*
X126990000Y-72562322D01*
X126990000Y-72562332D01*
X127000997Y-72673985D01*
X127027797Y-72762333D01*
X127044454Y-72817246D01*
X127115026Y-72949276D01*
X127152103Y-72994454D01*
X127209999Y-73065001D01*
X127239003Y-73088804D01*
X127526312Y-73376114D01*
X127490000Y-73558665D01*
X127490000Y-73841335D01*
X127545147Y-74118574D01*
X127653320Y-74379727D01*
X127810363Y-74614759D01*
X128010241Y-74814637D01*
X128245273Y-74971680D01*
X128506426Y-75079853D01*
X128783665Y-75135000D01*
X129066335Y-75135000D01*
X129343574Y-75079853D01*
X129604727Y-74971680D01*
X129839759Y-74814637D01*
X130039637Y-74614759D01*
X130196680Y-74379727D01*
X130304853Y-74118574D01*
X130360000Y-73841335D01*
X130360000Y-73558665D01*
X130304853Y-73281426D01*
X130196680Y-73020273D01*
X130039637Y-72785241D01*
X129839759Y-72585363D01*
X129604727Y-72428320D01*
X129343574Y-72320147D01*
X129066335Y-72265000D01*
X128783665Y-72265000D01*
X128601114Y-72301312D01*
X128510000Y-72210199D01*
X128510000Y-68984991D01*
X128645001Y-68984991D01*
X128645001Y-69277511D01*
X128702069Y-69564409D01*
X128814011Y-69834662D01*
X128976526Y-70077883D01*
X129183369Y-70284726D01*
X129426590Y-70447241D01*
X129696843Y-70559183D01*
X129983741Y-70616251D01*
X130276261Y-70616251D01*
X130563159Y-70559183D01*
X130833412Y-70447241D01*
X131076633Y-70284726D01*
X131283476Y-70077883D01*
X131445991Y-69834662D01*
X131557933Y-69564409D01*
X131615001Y-69277511D01*
X131615001Y-68984991D01*
X131557933Y-68698093D01*
X131445991Y-68427840D01*
X131283476Y-68184619D01*
X131076633Y-67977776D01*
X130833412Y-67815261D01*
X130563159Y-67703319D01*
X130276261Y-67646251D01*
X129983741Y-67646251D01*
X129696843Y-67703319D01*
X129426590Y-67815261D01*
X129183369Y-67977776D01*
X128976526Y-68184619D01*
X128814011Y-68427840D01*
X128702069Y-68698093D01*
X128645001Y-68984991D01*
X128510000Y-68984991D01*
X128510000Y-68427571D01*
X128513676Y-68390248D01*
X128510000Y-68352925D01*
X128510000Y-68352915D01*
X128499003Y-68241262D01*
X128455546Y-68098001D01*
X128406772Y-68006752D01*
X128384974Y-67965971D01*
X128313799Y-67879245D01*
X128290001Y-67850247D01*
X128261003Y-67826449D01*
X126514807Y-66080254D01*
X126491004Y-66051250D01*
X126375279Y-65956277D01*
X126243250Y-65885705D01*
X126099989Y-65842248D01*
X125988336Y-65831251D01*
X125988325Y-65831251D01*
X125951003Y-65827575D01*
X125913681Y-65831251D01*
X122803149Y-65831251D01*
X122777538Y-65769420D01*
X122587664Y-65485253D01*
X122345999Y-65243588D01*
X122061832Y-65053714D01*
X121746082Y-64922926D01*
X121410884Y-64856251D01*
X121069118Y-64856251D01*
X120733920Y-64922926D01*
X120418170Y-65053714D01*
X120134003Y-65243588D01*
X119892338Y-65485253D01*
X119702464Y-65769420D01*
X119571676Y-66085170D01*
X119505001Y-66420368D01*
X119505001Y-66762134D01*
X119571676Y-67097332D01*
X119702464Y-67413082D01*
X119858262Y-67646251D01*
X119823741Y-67646251D01*
X119536843Y-67703319D01*
X119266590Y-67815261D01*
X119023369Y-67977776D01*
X118816526Y-68184619D01*
X118654011Y-68427840D01*
X118542069Y-68698093D01*
X118510000Y-68859314D01*
X118510000Y-64953711D01*
X118553937Y-64909774D01*
X118667205Y-64740256D01*
X118745226Y-64551898D01*
X118785000Y-64351939D01*
X118785000Y-64148061D01*
X118745226Y-63948102D01*
X118667205Y-63759744D01*
X118553937Y-63590226D01*
X118409774Y-63446063D01*
X118320257Y-63386250D01*
X124530394Y-63386250D01*
X124504774Y-63448102D01*
X124465000Y-63648061D01*
X124465000Y-63851939D01*
X124504774Y-64051898D01*
X124582795Y-64240256D01*
X124696063Y-64409774D01*
X124840226Y-64553937D01*
X125009744Y-64667205D01*
X125198102Y-64745226D01*
X125398061Y-64785000D01*
X125601939Y-64785000D01*
X125601963Y-64784995D01*
X125652265Y-64800254D01*
X125763918Y-64811251D01*
X125763927Y-64811251D01*
X125801250Y-64814927D01*
X125838573Y-64811251D01*
X126026853Y-64811251D01*
X126052464Y-64873082D01*
X126242338Y-65157249D01*
X126484003Y-65398914D01*
X126768170Y-65588788D01*
X127083920Y-65719576D01*
X127419118Y-65786251D01*
X127760884Y-65786251D01*
X128096082Y-65719576D01*
X128411832Y-65588788D01*
X128695999Y-65398914D01*
X128937664Y-65157249D01*
X129127538Y-64873082D01*
X129153149Y-64811251D01*
X133725038Y-64811251D01*
X133696063Y-64840226D01*
X133582795Y-65009744D01*
X133504774Y-65198102D01*
X133465000Y-65398061D01*
X133465000Y-65601939D01*
X133504774Y-65801898D01*
X133582795Y-65990256D01*
X133696063Y-66159774D01*
X133740001Y-66203712D01*
X133740000Y-67731427D01*
X133736324Y-67768750D01*
X133740000Y-67806072D01*
X133740000Y-67806082D01*
X133750997Y-67917735D01*
X133778000Y-68006752D01*
X133794454Y-68060996D01*
X133865026Y-68193026D01*
X133904613Y-68241262D01*
X133959999Y-68308751D01*
X133989003Y-68332554D01*
X139111928Y-73455480D01*
X139111928Y-74618750D01*
X139124188Y-74743232D01*
X139160498Y-74862930D01*
X139219463Y-74973244D01*
X139298815Y-75069935D01*
X139395506Y-75149287D01*
X139505820Y-75208252D01*
X139625518Y-75244562D01*
X139750000Y-75256822D01*
X140913270Y-75256822D01*
X141417451Y-75761003D01*
X141441249Y-75790001D01*
X141556974Y-75884974D01*
X141689003Y-75955546D01*
X141832264Y-75999003D01*
X141943917Y-76010000D01*
X141943926Y-76010000D01*
X141981249Y-76013676D01*
X142018572Y-76010000D01*
X158412678Y-76010000D01*
X158450000Y-76013676D01*
X158487322Y-76010000D01*
X158487333Y-76010000D01*
X158598986Y-75999003D01*
X158742247Y-75955546D01*
X158874276Y-75884974D01*
X158990001Y-75790001D01*
X159013804Y-75760997D01*
X159636729Y-75138072D01*
X160800000Y-75138072D01*
X160924482Y-75125812D01*
X161044180Y-75089502D01*
X161154494Y-75030537D01*
X161251185Y-74951185D01*
X161330537Y-74854494D01*
X161389502Y-74744180D01*
X161425812Y-74624482D01*
X161438072Y-74500000D01*
X161438072Y-72900000D01*
X161425812Y-72775518D01*
X161389502Y-72655820D01*
X161330537Y-72545506D01*
X161251185Y-72448815D01*
X161154494Y-72369463D01*
X161044180Y-72310498D01*
X160924482Y-72274188D01*
X160800000Y-72261928D01*
X159200000Y-72261928D01*
X159075518Y-72274188D01*
X158955820Y-72310498D01*
X158845506Y-72369463D01*
X158748815Y-72448815D01*
X158669463Y-72545506D01*
X158610498Y-72655820D01*
X158574188Y-72775518D01*
X158561928Y-72900000D01*
X158561928Y-74063271D01*
X158135199Y-74490000D01*
X149625191Y-74490000D01*
X149729853Y-74237324D01*
X149785000Y-73960085D01*
X149785000Y-73677415D01*
X149729853Y-73400176D01*
X149621680Y-73139023D01*
X149464637Y-72903991D01*
X149264759Y-72704113D01*
X149029727Y-72547070D01*
X148768574Y-72438897D01*
X148491335Y-72383750D01*
X148208665Y-72383750D01*
X148026113Y-72420062D01*
X148010000Y-72403949D01*
X148010000Y-69583556D01*
X148114011Y-69834662D01*
X148276526Y-70077883D01*
X148483369Y-70284726D01*
X148726590Y-70447241D01*
X148996843Y-70559183D01*
X149283741Y-70616251D01*
X149576261Y-70616251D01*
X149863159Y-70559183D01*
X150133412Y-70447241D01*
X150376633Y-70284726D01*
X150583476Y-70077883D01*
X150745991Y-69834662D01*
X150857933Y-69564409D01*
X150915001Y-69277511D01*
X150915001Y-68984991D01*
X150857933Y-68698093D01*
X150745991Y-68427840D01*
X150583476Y-68184619D01*
X150376633Y-67977776D01*
X150133412Y-67815261D01*
X149863159Y-67703319D01*
X149576261Y-67646251D01*
X149283741Y-67646251D01*
X148996843Y-67703319D01*
X148726590Y-67815261D01*
X148483369Y-67977776D01*
X148276526Y-68184619D01*
X148114011Y-68427840D01*
X148010000Y-68678946D01*
X148010000Y-68627573D01*
X148013676Y-68590248D01*
X148010000Y-68552923D01*
X148010000Y-68552915D01*
X147999003Y-68441262D01*
X147955546Y-68298001D01*
X147884974Y-68165972D01*
X147790001Y-68050247D01*
X147761003Y-68026449D01*
X145917482Y-66182929D01*
X146057014Y-66225255D01*
X146168667Y-66236252D01*
X146168675Y-66236252D01*
X146206000Y-66239928D01*
X146243325Y-66236252D01*
X158132873Y-66236252D01*
X158096250Y-66420368D01*
X158096250Y-66762134D01*
X158162925Y-67097332D01*
X158293713Y-67413082D01*
X158449511Y-67646251D01*
X158414990Y-67646251D01*
X158128092Y-67703319D01*
X157857839Y-67815261D01*
X157614618Y-67977776D01*
X157407775Y-68184619D01*
X157245260Y-68427840D01*
X157133318Y-68698093D01*
X157076250Y-68984991D01*
X157076250Y-69277511D01*
X157133318Y-69564409D01*
X157245260Y-69834662D01*
X157407775Y-70077883D01*
X157614618Y-70284726D01*
X157857839Y-70447241D01*
X158128092Y-70559183D01*
X158414990Y-70616251D01*
X158707510Y-70616251D01*
X158994408Y-70559183D01*
X159264661Y-70447241D01*
X159507882Y-70284726D01*
X159714725Y-70077883D01*
X159877240Y-69834662D01*
X159989182Y-69564409D01*
X160046250Y-69277511D01*
X160046250Y-68984991D01*
X159989182Y-68698093D01*
X159877240Y-68427840D01*
X159809360Y-68326251D01*
X160002133Y-68326251D01*
X160337331Y-68259576D01*
X160653081Y-68128788D01*
X160937248Y-67938914D01*
X161178913Y-67697249D01*
X161368787Y-67413082D01*
X161394398Y-67351251D01*
X161694797Y-67351251D01*
X161594512Y-67451536D01*
X161306143Y-67883110D01*
X161107511Y-68362650D01*
X161006250Y-68871726D01*
X161006250Y-69390776D01*
X161107511Y-69899852D01*
X161306143Y-70379392D01*
X161594512Y-70810966D01*
X161961535Y-71177989D01*
X162393109Y-71466358D01*
X162872649Y-71664990D01*
X163381725Y-71766251D01*
X163900775Y-71766251D01*
X164409851Y-71664990D01*
X164889391Y-71466358D01*
X165320965Y-71177989D01*
X165490000Y-71008954D01*
X165490000Y-72112677D01*
X165486324Y-72150000D01*
X165490000Y-72187322D01*
X165490000Y-72187332D01*
X165500997Y-72298985D01*
X165525778Y-72380678D01*
X165544454Y-72442246D01*
X165615026Y-72574276D01*
X165654871Y-72622826D01*
X165709999Y-72690001D01*
X165739003Y-72713804D01*
X166401312Y-73376114D01*
X166365000Y-73558665D01*
X166365000Y-73841335D01*
X166420147Y-74118574D01*
X166528320Y-74379727D01*
X166685363Y-74614759D01*
X166885241Y-74814637D01*
X167120273Y-74971680D01*
X167381426Y-75079853D01*
X167658665Y-75135000D01*
X167941335Y-75135000D01*
X168218574Y-75079853D01*
X168479727Y-74971680D01*
X168714759Y-74814637D01*
X168914637Y-74614759D01*
X169071680Y-74379727D01*
X169179853Y-74118574D01*
X169235000Y-73841335D01*
X169235000Y-73558665D01*
X169179853Y-73281426D01*
X169071680Y-73020273D01*
X168914637Y-72785241D01*
X168714759Y-72585363D01*
X168479727Y-72428320D01*
X168218574Y-72320147D01*
X167941335Y-72265000D01*
X167658665Y-72265000D01*
X167476114Y-72301312D01*
X167010000Y-71835199D01*
X167010000Y-68984991D01*
X167236250Y-68984991D01*
X167236250Y-69277511D01*
X167293318Y-69564409D01*
X167405260Y-69834662D01*
X167567775Y-70077883D01*
X167774618Y-70284726D01*
X168017839Y-70447241D01*
X168288092Y-70559183D01*
X168574990Y-70616251D01*
X168867510Y-70616251D01*
X169154408Y-70559183D01*
X169424661Y-70447241D01*
X169667882Y-70284726D01*
X169874725Y-70077883D01*
X170037240Y-69834662D01*
X170149182Y-69564409D01*
X170206250Y-69277511D01*
X170206250Y-68984991D01*
X170149182Y-68698093D01*
X170037240Y-68427840D01*
X169874725Y-68184619D01*
X169667882Y-67977776D01*
X169424661Y-67815261D01*
X169154408Y-67703319D01*
X168867510Y-67646251D01*
X168574990Y-67646251D01*
X168288092Y-67703319D01*
X168017839Y-67815261D01*
X167774618Y-67977776D01*
X167567775Y-68184619D01*
X167405260Y-68427840D01*
X167293318Y-68698093D01*
X167236250Y-68984991D01*
X167010000Y-68984991D01*
X167010000Y-68336321D01*
X167013676Y-68298998D01*
X167010000Y-68261675D01*
X167010000Y-68261666D01*
X166999003Y-68150013D01*
X166955546Y-68006752D01*
X166884974Y-67874723D01*
X166864887Y-67850247D01*
X166813799Y-67787995D01*
X166813795Y-67787991D01*
X166790001Y-67758998D01*
X166761008Y-67735204D01*
X165106055Y-66080253D01*
X165082253Y-66051250D01*
X164966528Y-65956277D01*
X164834499Y-65885705D01*
X164691238Y-65842248D01*
X164579585Y-65831251D01*
X164579574Y-65831251D01*
X164542252Y-65827575D01*
X164504930Y-65831251D01*
X161394398Y-65831251D01*
X161368787Y-65769420D01*
X161178913Y-65485253D01*
X160937248Y-65243588D01*
X160653081Y-65053714D01*
X160427872Y-64960429D01*
X160577050Y-64811251D01*
X164618102Y-64811251D01*
X164643713Y-64873082D01*
X164833587Y-65157249D01*
X165075252Y-65398914D01*
X165359419Y-65588788D01*
X165675169Y-65719576D01*
X166010367Y-65786251D01*
X166352133Y-65786251D01*
X166687331Y-65719576D01*
X167003081Y-65588788D01*
X167287248Y-65398914D01*
X167528913Y-65157249D01*
X167718787Y-64873082D01*
X167849575Y-64557332D01*
X167916250Y-64222134D01*
X167916250Y-63880368D01*
X167849575Y-63545170D01*
X167718787Y-63229420D01*
X167528913Y-62945253D01*
X167287248Y-62703588D01*
X167003081Y-62513714D01*
X166687331Y-62382926D01*
X166352133Y-62316251D01*
X166010367Y-62316251D01*
X165675169Y-62382926D01*
X165359419Y-62513714D01*
X165075252Y-62703588D01*
X164833587Y-62945253D01*
X164643713Y-63229420D01*
X164618102Y-63291251D01*
X160299573Y-63291251D01*
X160262248Y-63287575D01*
X160224923Y-63291251D01*
X160224915Y-63291251D01*
X160113262Y-63302248D01*
X159970001Y-63345705D01*
X159837972Y-63416277D01*
X159722247Y-63511250D01*
X159698449Y-63540248D01*
X158522446Y-64716252D01*
X148492499Y-64716252D01*
X148558326Y-64557332D01*
X148625001Y-64222134D01*
X148625001Y-63880368D01*
X148558326Y-63545170D01*
X148427538Y-63229420D01*
X148237664Y-62945253D01*
X147995999Y-62703588D01*
X147711832Y-62513714D01*
X147396082Y-62382926D01*
X147060884Y-62316251D01*
X146719118Y-62316251D01*
X146383920Y-62382926D01*
X146322089Y-62408537D01*
X146028804Y-62115253D01*
X146005001Y-62086249D01*
X145889276Y-61991276D01*
X145757247Y-61920704D01*
X145613986Y-61877247D01*
X145502333Y-61866250D01*
X145502322Y-61866250D01*
X145465000Y-61862574D01*
X145427678Y-61866250D01*
X135468570Y-61866250D01*
X135495226Y-61801898D01*
X135535000Y-61601939D01*
X135535000Y-61398061D01*
X135495226Y-61198102D01*
X135417205Y-61009744D01*
X135303937Y-60840226D01*
X135260000Y-60796289D01*
X135260000Y-59223880D01*
X135263677Y-59186547D01*
X135249003Y-59037561D01*
X135205546Y-58894300D01*
X135134974Y-58762271D01*
X135063799Y-58675544D01*
X135040001Y-58646546D01*
X135011003Y-58622748D01*
X133747988Y-57359734D01*
X133747988Y-57297596D01*
X133708214Y-57097637D01*
X133630193Y-56909279D01*
X133516925Y-56739761D01*
X133372762Y-56595598D01*
X133203244Y-56482330D01*
X133014886Y-56404309D01*
X132814927Y-56364535D01*
X132611049Y-56364535D01*
X132411090Y-56404309D01*
X132222732Y-56482330D01*
X132053214Y-56595598D01*
X131909051Y-56739761D01*
X131795783Y-56909279D01*
X131717762Y-57097637D01*
X131677988Y-57297596D01*
X131677988Y-57501474D01*
X131717762Y-57701433D01*
X131752058Y-57784231D01*
X131696063Y-57840226D01*
X131582795Y-58009744D01*
X131504774Y-58198102D01*
X131465000Y-58398061D01*
X131465000Y-58460198D01*
X130666504Y-59258695D01*
X130553937Y-59090226D01*
X130409774Y-58946063D01*
X130240256Y-58832795D01*
X130051898Y-58754774D01*
X129851939Y-58715000D01*
X129648061Y-58715000D01*
X129448102Y-58754774D01*
X129259744Y-58832795D01*
X129090226Y-58946063D01*
X129046289Y-58990000D01*
X123223711Y-58990000D01*
X123303937Y-58909774D01*
X123417205Y-58740256D01*
X123495226Y-58551898D01*
X123535000Y-58351939D01*
X123535000Y-58289801D01*
X127314802Y-54510000D01*
X131888349Y-54510000D01*
X131942487Y-54591024D01*
X132086650Y-54735187D01*
X132256168Y-54848455D01*
X132444526Y-54926476D01*
X132644485Y-54966250D01*
X132848363Y-54966250D01*
X133048322Y-54926476D01*
X133236680Y-54848455D01*
X133406198Y-54735187D01*
X133550361Y-54591024D01*
X133663629Y-54421506D01*
X133741650Y-54233148D01*
X133781424Y-54033189D01*
X133781424Y-53829311D01*
X133741650Y-53629352D01*
X133663629Y-53440994D01*
X133550361Y-53271476D01*
X133406198Y-53127313D01*
X133236680Y-53014045D01*
X133048322Y-52936024D01*
X132848363Y-52896250D01*
X132644485Y-52896250D01*
X132444526Y-52936024D01*
X132314217Y-52990000D01*
X127037322Y-52990000D01*
X126999999Y-52986324D01*
X126962676Y-52990000D01*
X126962667Y-52990000D01*
X126851014Y-53000997D01*
X126707753Y-53044454D01*
X126575723Y-53115026D01*
X126533991Y-53149275D01*
X126459999Y-53209999D01*
X126436201Y-53238997D01*
X122460199Y-57215000D01*
X122398061Y-57215000D01*
X122198102Y-57254774D01*
X122009744Y-57332795D01*
X121840226Y-57446063D01*
X121696063Y-57590226D01*
X121582795Y-57759744D01*
X121504774Y-57948102D01*
X121465000Y-58148061D01*
X121465000Y-58351939D01*
X121504774Y-58551898D01*
X121582795Y-58740256D01*
X121696063Y-58909774D01*
X121776289Y-58990000D01*
X110537322Y-58990000D01*
X110499999Y-58986324D01*
X110462676Y-58990000D01*
X110462667Y-58990000D01*
X110351014Y-59000997D01*
X110207753Y-59044454D01*
X110075724Y-59115026D01*
X109959999Y-59209999D01*
X109936201Y-59238997D01*
X107770248Y-61404951D01*
X107741250Y-61428749D01*
X107717452Y-61457747D01*
X107717451Y-61457748D01*
X107646276Y-61544474D01*
X107575704Y-61676504D01*
X107553410Y-61750000D01*
X107532248Y-61819764D01*
X107526586Y-61877247D01*
X107517574Y-61968750D01*
X107521251Y-62006082D01*
X107521251Y-62488102D01*
X107459419Y-62513714D01*
X107175252Y-62703588D01*
X106933587Y-62945253D01*
X106743713Y-63229420D01*
X106612925Y-63545170D01*
X106546250Y-63880368D01*
X106546250Y-64222134D01*
X106612925Y-64557332D01*
X106743713Y-64873082D01*
X106933587Y-65157249D01*
X107175252Y-65398914D01*
X107459419Y-65588788D01*
X107775169Y-65719576D01*
X108110367Y-65786251D01*
X108452133Y-65786251D01*
X108787331Y-65719576D01*
X109103081Y-65588788D01*
X109387248Y-65398914D01*
X109628913Y-65157249D01*
X109818787Y-64873082D01*
X109949575Y-64557332D01*
X110016250Y-64222134D01*
X110016250Y-63880368D01*
X109949575Y-63545170D01*
X109923964Y-63483339D01*
X110021053Y-63386250D01*
X117179743Y-63386250D01*
X117090226Y-63446063D01*
X116946063Y-63590226D01*
X116832795Y-63759744D01*
X116754774Y-63948102D01*
X116715000Y-64148061D01*
X116715000Y-64351939D01*
X116754774Y-64551898D01*
X116832795Y-64740256D01*
X116946063Y-64909774D01*
X116990001Y-64953712D01*
X116990000Y-69462675D01*
X116986324Y-69500000D01*
X116990000Y-69537322D01*
X116990000Y-69537332D01*
X117000997Y-69648985D01*
X117044454Y-69792246D01*
X117115026Y-69924276D01*
X117154871Y-69972826D01*
X117209999Y-70040001D01*
X117239003Y-70063804D01*
X119768771Y-72593572D01*
X119735498Y-72655820D01*
X119699188Y-72775518D01*
X119686928Y-72900000D01*
X119686928Y-74063271D01*
X119260199Y-74490000D01*
X110922998Y-74490000D01*
X110996680Y-74379727D01*
X111104853Y-74118574D01*
X111160000Y-73841335D01*
X111160000Y-73558665D01*
X111104853Y-73281426D01*
X110996680Y-73020273D01*
X110839637Y-72785241D01*
X110639759Y-72585363D01*
X110404727Y-72428320D01*
X110143574Y-72320147D01*
X109866335Y-72265000D01*
X109583665Y-72265000D01*
X109510000Y-72279653D01*
X109510000Y-69841756D01*
X109667775Y-70077883D01*
X109874618Y-70284726D01*
X110117839Y-70447241D01*
X110388092Y-70559183D01*
X110674990Y-70616251D01*
X110967510Y-70616251D01*
X111254408Y-70559183D01*
X111524661Y-70447241D01*
X111767882Y-70284726D01*
X111974725Y-70077883D01*
X112137240Y-69834662D01*
X112249182Y-69564409D01*
X112306250Y-69277511D01*
X112306250Y-68984991D01*
X112249182Y-68698093D01*
X112137240Y-68427840D01*
X111974725Y-68184619D01*
X111767882Y-67977776D01*
X111524661Y-67815261D01*
X111254408Y-67703319D01*
X110967510Y-67646251D01*
X110674990Y-67646251D01*
X110388092Y-67703319D01*
X110117839Y-67815261D01*
X109874618Y-67977776D01*
X109667775Y-68184619D01*
X109505260Y-68427840D01*
X109480255Y-68488208D01*
X109455546Y-68406752D01*
X109384974Y-68274723D01*
X109290001Y-68158998D01*
X109261003Y-68135200D01*
X107206056Y-66080254D01*
X107182253Y-66051250D01*
X107066528Y-65956277D01*
X106934499Y-65885705D01*
X106791238Y-65842248D01*
X106679585Y-65831251D01*
X106679574Y-65831251D01*
X106642252Y-65827575D01*
X106604930Y-65831251D01*
X103494398Y-65831251D01*
X103468787Y-65769420D01*
X103278913Y-65485253D01*
X103037248Y-65243588D01*
X102753081Y-65053714D01*
X102437331Y-64922926D01*
X102102133Y-64856251D01*
X101760367Y-64856251D01*
X101425169Y-64922926D01*
X101109419Y-65053714D01*
X100825252Y-65243588D01*
X100583587Y-65485253D01*
X100393713Y-65769420D01*
X100262925Y-66085170D01*
X100196250Y-66420368D01*
X100196250Y-66762134D01*
X100262925Y-67097332D01*
X100393713Y-67413082D01*
X100549511Y-67646251D01*
X100514990Y-67646251D01*
X100228092Y-67703319D01*
X99957839Y-67815261D01*
X99714618Y-67977776D01*
X99507775Y-68184619D01*
X99345260Y-68427840D01*
X99233318Y-68698093D01*
X99176250Y-68984991D01*
X95310000Y-68984991D01*
X95310000Y-59657279D01*
X95331007Y-59443033D01*
X95383852Y-59268002D01*
X95469690Y-59106565D01*
X95585250Y-58964873D01*
X95726127Y-58848329D01*
X95886960Y-58761367D01*
X96061625Y-58707299D01*
X96273787Y-58685000D01*
X119992581Y-58685000D01*
X120025000Y-58688193D01*
X120057419Y-58685000D01*
X120154383Y-58675450D01*
X120278793Y-58637710D01*
X120393450Y-58576425D01*
X120493948Y-58493948D01*
X120576425Y-58393450D01*
X120637710Y-58278793D01*
X120675450Y-58154383D01*
X120688193Y-58025000D01*
X120685000Y-57992581D01*
X120685000Y-53648061D01*
X121465000Y-53648061D01*
X121465000Y-53851939D01*
X121504774Y-54051898D01*
X121582795Y-54240256D01*
X121696063Y-54409774D01*
X121840226Y-54553937D01*
X122009744Y-54667205D01*
X122198102Y-54745226D01*
X122398061Y-54785000D01*
X122601939Y-54785000D01*
X122801898Y-54745226D01*
X122990256Y-54667205D01*
X123159774Y-54553937D01*
X123303937Y-54409774D01*
X123417205Y-54240256D01*
X123495226Y-54051898D01*
X123535000Y-53851939D01*
X123535000Y-53648061D01*
X123495226Y-53448102D01*
X123417205Y-53259744D01*
X123303937Y-53090226D01*
X123260000Y-53046289D01*
X123260000Y-46648061D01*
X125965000Y-46648061D01*
X125965000Y-46851939D01*
X126004774Y-47051898D01*
X126082795Y-47240256D01*
X126196063Y-47409774D01*
X126340226Y-47553937D01*
X126490001Y-47654013D01*
X126490000Y-50796289D01*
X126446063Y-50840226D01*
X126332795Y-51009744D01*
X126254774Y-51198102D01*
X126215000Y-51398061D01*
X126215000Y-51601939D01*
X126254774Y-51801898D01*
X126332795Y-51990256D01*
X126446063Y-52159774D01*
X126590226Y-52303937D01*
X126759744Y-52417205D01*
X126948102Y-52495226D01*
X127148061Y-52535000D01*
X127351939Y-52535000D01*
X127551898Y-52495226D01*
X127740256Y-52417205D01*
X127909774Y-52303937D01*
X128053937Y-52159774D01*
X128167205Y-51990256D01*
X128245226Y-51801898D01*
X128285000Y-51601939D01*
X128285000Y-51398061D01*
X128245226Y-51198102D01*
X128167205Y-51009744D01*
X128053937Y-50840226D01*
X128010000Y-50796289D01*
X128010000Y-47037322D01*
X128013676Y-46999999D01*
X128010985Y-46972673D01*
X128035000Y-46851939D01*
X128035000Y-46648061D01*
X128030028Y-46623061D01*
X130715000Y-46623061D01*
X130715000Y-46826939D01*
X130754774Y-47026898D01*
X130832795Y-47215256D01*
X130946063Y-47384774D01*
X131090226Y-47528937D01*
X131259744Y-47642205D01*
X131448102Y-47720226D01*
X131530853Y-47736686D01*
X131446063Y-47821476D01*
X131332795Y-47990994D01*
X131254774Y-48179352D01*
X131215000Y-48379311D01*
X131215000Y-48583189D01*
X131239015Y-48703924D01*
X131236324Y-48731250D01*
X131240001Y-48768582D01*
X131240000Y-49546289D01*
X131196063Y-49590226D01*
X131082795Y-49759744D01*
X131004774Y-49948102D01*
X130965000Y-50148061D01*
X130965000Y-50351939D01*
X131004774Y-50551898D01*
X131082795Y-50740256D01*
X131196063Y-50909774D01*
X131340226Y-51053937D01*
X131509744Y-51167205D01*
X131698102Y-51245226D01*
X131898061Y-51285000D01*
X132101939Y-51285000D01*
X132301898Y-51245226D01*
X132490256Y-51167205D01*
X132659774Y-51053937D01*
X132803937Y-50909774D01*
X132917205Y-50740256D01*
X132995226Y-50551898D01*
X133035000Y-50351939D01*
X133035000Y-50148061D01*
X132995226Y-49948102D01*
X132917205Y-49759744D01*
X132803937Y-49590226D01*
X132760000Y-49546289D01*
X132760000Y-49385263D01*
X132909774Y-49285187D01*
X133053937Y-49141024D01*
X133068871Y-49118673D01*
X136990001Y-53039804D01*
X136990000Y-58796289D01*
X136946063Y-58840226D01*
X136832795Y-59009744D01*
X136754774Y-59198102D01*
X136715000Y-59398061D01*
X136715000Y-59601939D01*
X136754774Y-59801898D01*
X136832795Y-59990256D01*
X136946063Y-60159774D01*
X137090226Y-60303937D01*
X137259744Y-60417205D01*
X137448102Y-60495226D01*
X137648061Y-60535000D01*
X137851939Y-60535000D01*
X138051898Y-60495226D01*
X138240256Y-60417205D01*
X138409774Y-60303937D01*
X138553937Y-60159774D01*
X138667205Y-59990256D01*
X138745226Y-59801898D01*
X138785000Y-59601939D01*
X138785000Y-59398061D01*
X138745226Y-59198102D01*
X138667205Y-59009744D01*
X138553937Y-58840226D01*
X138510000Y-58796289D01*
X138510000Y-52762322D01*
X138513676Y-52724999D01*
X138510000Y-52687676D01*
X138510000Y-52687667D01*
X138499003Y-52576014D01*
X138455546Y-52432753D01*
X138384974Y-52300724D01*
X138371811Y-52284685D01*
X138313799Y-52213996D01*
X138313795Y-52213992D01*
X138290001Y-52184999D01*
X138261008Y-52161205D01*
X132785000Y-46685199D01*
X132785000Y-46623061D01*
X132745226Y-46423102D01*
X132667205Y-46234744D01*
X132553937Y-46065226D01*
X132409774Y-45921063D01*
X132240256Y-45807795D01*
X132051898Y-45729774D01*
X131851939Y-45690000D01*
X131648061Y-45690000D01*
X131448102Y-45729774D01*
X131259744Y-45807795D01*
X131090226Y-45921063D01*
X130946063Y-46065226D01*
X130832795Y-46234744D01*
X130754774Y-46423102D01*
X130715000Y-46623061D01*
X128030028Y-46623061D01*
X127995226Y-46448102D01*
X127917205Y-46259744D01*
X127803937Y-46090226D01*
X127659774Y-45946063D01*
X127490256Y-45832795D01*
X127301898Y-45754774D01*
X127101939Y-45715000D01*
X126898061Y-45715000D01*
X126698102Y-45754774D01*
X126509744Y-45832795D01*
X126340226Y-45946063D01*
X126196063Y-46090226D01*
X126082795Y-46259744D01*
X126004774Y-46448102D01*
X125965000Y-46648061D01*
X123260000Y-46648061D01*
X123260000Y-43814801D01*
X123314801Y-43760000D01*
X138712678Y-43760000D01*
X138750000Y-43763676D01*
X138787322Y-43760000D01*
X138787333Y-43760000D01*
X138898986Y-43749003D01*
X139042247Y-43705546D01*
X139174276Y-43634974D01*
X139290001Y-43540001D01*
X139313804Y-43510997D01*
X139760998Y-43063803D01*
X139790001Y-43040001D01*
X139884974Y-42924276D01*
X139955546Y-42792247D01*
X139999003Y-42648986D01*
X140010000Y-42537333D01*
X140010000Y-42537325D01*
X140013676Y-42500000D01*
X140010000Y-42462675D01*
X140010000Y-41287333D01*
X140013677Y-41250000D01*
X139999003Y-41101014D01*
X139955546Y-40957753D01*
X139884974Y-40825724D01*
X139813799Y-40738997D01*
X139790001Y-40709999D01*
X139761003Y-40686201D01*
X139303639Y-40228838D01*
X139406028Y-40125061D01*
X139555972Y-39897349D01*
X139658611Y-39644760D01*
X139710000Y-39377000D01*
X139710000Y-38127000D01*
X138452000Y-38127000D01*
X138452000Y-38147000D01*
X138198000Y-38147000D01*
X138198000Y-38127000D01*
X136940000Y-38127000D01*
X136940000Y-39219119D01*
X136879494Y-39169463D01*
X136769180Y-39110498D01*
X136649482Y-39074188D01*
X136525000Y-39061928D01*
X136025000Y-39061928D01*
X135900518Y-39074188D01*
X135875000Y-39081929D01*
X135849482Y-39074188D01*
X135725000Y-39061928D01*
X135225000Y-39061928D01*
X135100518Y-39074188D01*
X135075000Y-39081929D01*
X135049482Y-39074188D01*
X134925000Y-39061928D01*
X134425000Y-39061928D01*
X134300518Y-39074188D01*
X134275000Y-39081929D01*
X134249482Y-39074188D01*
X134125000Y-39061928D01*
X133625000Y-39061928D01*
X133500518Y-39074188D01*
X133476072Y-39081604D01*
X133459229Y-39076206D01*
X133356750Y-39065000D01*
X133198000Y-39223750D01*
X133198000Y-39228967D01*
X133173815Y-39248815D01*
X133094463Y-39345506D01*
X133035498Y-39455820D01*
X132999188Y-39575518D01*
X132986928Y-39700000D01*
X132986928Y-40547000D01*
X132952000Y-40547000D01*
X132952000Y-40527000D01*
X132348750Y-40527000D01*
X132190000Y-40685750D01*
X132187006Y-41090046D01*
X132197323Y-41214704D01*
X132231761Y-41334954D01*
X132288997Y-41446174D01*
X132323834Y-41490000D01*
X124007538Y-41490000D01*
X124035000Y-41351939D01*
X124035000Y-41148061D01*
X123995226Y-40948102D01*
X123917205Y-40759744D01*
X123803937Y-40590226D01*
X123659774Y-40446063D01*
X123490256Y-40332795D01*
X123301898Y-40254774D01*
X123101939Y-40215000D01*
X122898061Y-40215000D01*
X122698102Y-40254774D01*
X122509744Y-40332795D01*
X122340226Y-40446063D01*
X122196063Y-40590226D01*
X122082795Y-40759744D01*
X122004774Y-40948102D01*
X121965000Y-41148061D01*
X121965000Y-41351939D01*
X122004774Y-41551898D01*
X122082795Y-41740256D01*
X122196063Y-41909774D01*
X122240001Y-41953712D01*
X122240001Y-42212658D01*
X122236323Y-42250000D01*
X122250997Y-42398986D01*
X122294454Y-42542247D01*
X122325281Y-42599918D01*
X121988998Y-42936201D01*
X121960000Y-42959999D01*
X121936202Y-42988997D01*
X121936201Y-42988998D01*
X121865026Y-43075724D01*
X121794454Y-43207754D01*
X121750998Y-43351015D01*
X121736324Y-43500000D01*
X121740001Y-43537332D01*
X121740000Y-53046289D01*
X121696063Y-53090226D01*
X121582795Y-53259744D01*
X121504774Y-53448102D01*
X121465000Y-53648061D01*
X120685000Y-53648061D01*
X120685000Y-38127000D01*
X129640000Y-38127000D01*
X129640000Y-39377000D01*
X129691389Y-39644760D01*
X129794028Y-39897349D01*
X129943972Y-40125061D01*
X130135460Y-40319145D01*
X130361132Y-40472142D01*
X130612316Y-40578173D01*
X130683815Y-40592318D01*
X130898000Y-40469656D01*
X130898000Y-38127000D01*
X131152000Y-38127000D01*
X131152000Y-40469656D01*
X131366185Y-40592318D01*
X131437684Y-40578173D01*
X131688868Y-40472142D01*
X131914540Y-40319145D01*
X132106028Y-40125061D01*
X132189145Y-39998835D01*
X132190000Y-40114250D01*
X132348750Y-40273000D01*
X132952000Y-40273000D01*
X132952000Y-39223750D01*
X132793250Y-39065000D01*
X132690771Y-39076206D01*
X132571654Y-39114379D01*
X132462273Y-39175057D01*
X132410000Y-39219339D01*
X132410000Y-38127000D01*
X131152000Y-38127000D01*
X130898000Y-38127000D01*
X129640000Y-38127000D01*
X120685000Y-38127000D01*
X120685000Y-36623000D01*
X129640000Y-36623000D01*
X129640000Y-37873000D01*
X130898000Y-37873000D01*
X130898000Y-37853000D01*
X131152000Y-37853000D01*
X131152000Y-37873000D01*
X132410000Y-37873000D01*
X132410000Y-36623000D01*
X132358611Y-36355240D01*
X132309785Y-36235083D01*
X133175000Y-36238072D01*
X133299482Y-36225812D01*
X133419180Y-36189502D01*
X133529494Y-36130537D01*
X133626185Y-36051185D01*
X133705537Y-35954494D01*
X133764502Y-35844180D01*
X133800812Y-35724482D01*
X133813072Y-35600000D01*
X135536928Y-35600000D01*
X135549188Y-35724482D01*
X135585498Y-35844180D01*
X135644463Y-35954494D01*
X135723815Y-36051185D01*
X135820506Y-36130537D01*
X135930820Y-36189502D01*
X136050518Y-36225812D01*
X136175000Y-36238072D01*
X137040215Y-36235083D01*
X136991389Y-36355240D01*
X136940000Y-36623000D01*
X136940000Y-37873000D01*
X138198000Y-37873000D01*
X138198000Y-37853000D01*
X138452000Y-37853000D01*
X138452000Y-37873000D01*
X139710000Y-37873000D01*
X139710000Y-36623000D01*
X139658611Y-36355240D01*
X139555972Y-36102651D01*
X139406028Y-35874939D01*
X139214540Y-35680855D01*
X139158829Y-35643085D01*
X139163072Y-35600000D01*
X139160000Y-35485750D01*
X139001250Y-35327000D01*
X137477000Y-35327000D01*
X137477000Y-35347000D01*
X137223000Y-35347000D01*
X137223000Y-35327000D01*
X135698750Y-35327000D01*
X135540000Y-35485750D01*
X135536928Y-35600000D01*
X133813072Y-35600000D01*
X133810000Y-35485750D01*
X133651250Y-35327000D01*
X132127000Y-35327000D01*
X132127000Y-35347000D01*
X131873000Y-35347000D01*
X131873000Y-35327000D01*
X130348750Y-35327000D01*
X130190000Y-35485750D01*
X130186928Y-35600000D01*
X130191171Y-35643085D01*
X130135460Y-35680855D01*
X129943972Y-35874939D01*
X129794028Y-36102651D01*
X129691389Y-36355240D01*
X129640000Y-36623000D01*
X120685000Y-36623000D01*
X120685000Y-35085000D01*
X146815000Y-35085000D01*
X146815001Y-57967571D01*
%TA.AperFunction,Conductor*%
D19*
G36*
X146815001Y-57967571D02*
G01*
X146811807Y-58000000D01*
X146824550Y-58129383D01*
X146862290Y-58253793D01*
X146923575Y-58368450D01*
X147006052Y-58468948D01*
X147106550Y-58551425D01*
X147221207Y-58612710D01*
X147345617Y-58650450D01*
X147442581Y-58660000D01*
X147475000Y-58663193D01*
X147507419Y-58660000D01*
X173117721Y-58660000D01*
X173331967Y-58681007D01*
X173506998Y-58733852D01*
X173668435Y-58819690D01*
X173810127Y-58935250D01*
X173926671Y-59076127D01*
X174013633Y-59236960D01*
X174067701Y-59411625D01*
X174089969Y-59623497D01*
X174065043Y-78617279D01*
X174043993Y-78831968D01*
X173991149Y-79006997D01*
X173905309Y-79168436D01*
X173789750Y-79310126D01*
X173648869Y-79426673D01*
X173488040Y-79513633D01*
X173313374Y-79567701D01*
X173101282Y-79589993D01*
X96282391Y-79565011D01*
X96068032Y-79543993D01*
X95893003Y-79491149D01*
X95731564Y-79405309D01*
X95589874Y-79289750D01*
X95473327Y-79148869D01*
X95386367Y-78988040D01*
X95332299Y-78813374D01*
X95310000Y-78601213D01*
X95310000Y-68984991D01*
X99176250Y-68984991D01*
X99176250Y-69277511D01*
X99233318Y-69564409D01*
X99345260Y-69834662D01*
X99507775Y-70077883D01*
X99714618Y-70284726D01*
X99957839Y-70447241D01*
X100228092Y-70559183D01*
X100514990Y-70616251D01*
X100807510Y-70616251D01*
X101094408Y-70559183D01*
X101364661Y-70447241D01*
X101607882Y-70284726D01*
X101814725Y-70077883D01*
X101977240Y-69834662D01*
X102089182Y-69564409D01*
X102146250Y-69277511D01*
X102146250Y-68984991D01*
X102089182Y-68698093D01*
X101977240Y-68427840D01*
X101909360Y-68326251D01*
X102102133Y-68326251D01*
X102437331Y-68259576D01*
X102753081Y-68128788D01*
X103037248Y-67938914D01*
X103278913Y-67697249D01*
X103468787Y-67413082D01*
X103494398Y-67351251D01*
X103794797Y-67351251D01*
X103694512Y-67451536D01*
X103406143Y-67883110D01*
X103207511Y-68362650D01*
X103106250Y-68871726D01*
X103106250Y-69390776D01*
X103207511Y-69899852D01*
X103406143Y-70379392D01*
X103694512Y-70810966D01*
X104061535Y-71177989D01*
X104493109Y-71466358D01*
X104972649Y-71664990D01*
X105481725Y-71766251D01*
X106000775Y-71766251D01*
X106509851Y-71664990D01*
X106989391Y-71466358D01*
X107420965Y-71177989D01*
X107787988Y-70810966D01*
X107990001Y-70508633D01*
X107990000Y-72687677D01*
X107986324Y-72725000D01*
X107990000Y-72762322D01*
X107990000Y-72762332D01*
X108000997Y-72873985D01*
X108037540Y-72994454D01*
X108044454Y-73017246D01*
X108115026Y-73149276D01*
X108129774Y-73167246D01*
X108209999Y-73265001D01*
X108239002Y-73288804D01*
X108326312Y-73376113D01*
X108290000Y-73558665D01*
X108290000Y-73841335D01*
X108345147Y-74118574D01*
X108453320Y-74379727D01*
X108527002Y-74490000D01*
X103789802Y-74490000D01*
X103363072Y-74063270D01*
X103363072Y-72900000D01*
X103350812Y-72775518D01*
X103314502Y-72655820D01*
X103255537Y-72545506D01*
X103176185Y-72448815D01*
X103079494Y-72369463D01*
X102969180Y-72310498D01*
X102849482Y-72274188D01*
X102725000Y-72261928D01*
X101125000Y-72261928D01*
X101000518Y-72274188D01*
X100880820Y-72310498D01*
X100770506Y-72369463D01*
X100673815Y-72448815D01*
X100594463Y-72545506D01*
X100535498Y-72655820D01*
X100499188Y-72775518D01*
X100486928Y-72900000D01*
X100486928Y-74500000D01*
X100499188Y-74624482D01*
X100535498Y-74744180D01*
X100594463Y-74854494D01*
X100673815Y-74951185D01*
X100770506Y-75030537D01*
X100880820Y-75089502D01*
X101000518Y-75125812D01*
X101125000Y-75138072D01*
X102288270Y-75138072D01*
X102911201Y-75761003D01*
X102934999Y-75790001D01*
X102963997Y-75813799D01*
X103050723Y-75884974D01*
X103182753Y-75955546D01*
X103326014Y-75999003D01*
X103437667Y-76010000D01*
X103437677Y-76010000D01*
X103474999Y-76013676D01*
X103512322Y-76010000D01*
X119537678Y-76010000D01*
X119575000Y-76013676D01*
X119612322Y-76010000D01*
X119612333Y-76010000D01*
X119723986Y-75999003D01*
X119867247Y-75955546D01*
X119999276Y-75884974D01*
X120115001Y-75790001D01*
X120138804Y-75760997D01*
X120761729Y-75138072D01*
X121925000Y-75138072D01*
X122049482Y-75125812D01*
X122169180Y-75089502D01*
X122279494Y-75030537D01*
X122376185Y-74951185D01*
X122455537Y-74854494D01*
X122514502Y-74744180D01*
X122550812Y-74624482D01*
X122563072Y-74500000D01*
X122563072Y-72900000D01*
X122550812Y-72775518D01*
X122514502Y-72655820D01*
X122455537Y-72545506D01*
X122376185Y-72448815D01*
X122279494Y-72369463D01*
X122169180Y-72310498D01*
X122049482Y-72274188D01*
X121925000Y-72261928D01*
X121586730Y-72261928D01*
X119941052Y-70616251D01*
X120116261Y-70616251D01*
X120403159Y-70559183D01*
X120673412Y-70447241D01*
X120916633Y-70284726D01*
X121123476Y-70077883D01*
X121285991Y-69834662D01*
X121397933Y-69564409D01*
X121455001Y-69277511D01*
X121455001Y-68984991D01*
X121397933Y-68698093D01*
X121285991Y-68427840D01*
X121218111Y-68326251D01*
X121410884Y-68326251D01*
X121746082Y-68259576D01*
X122061832Y-68128788D01*
X122345999Y-67938914D01*
X122587664Y-67697249D01*
X122777538Y-67413082D01*
X122803149Y-67351251D01*
X123103548Y-67351251D01*
X123003263Y-67451536D01*
X122714894Y-67883110D01*
X122516262Y-68362650D01*
X122415001Y-68871726D01*
X122415001Y-69390776D01*
X122516262Y-69899852D01*
X122714894Y-70379392D01*
X123003263Y-70810966D01*
X123370286Y-71177989D01*
X123801860Y-71466358D01*
X124281400Y-71664990D01*
X124790476Y-71766251D01*
X125309526Y-71766251D01*
X125818602Y-71664990D01*
X126298142Y-71466358D01*
X126729716Y-71177989D01*
X126990000Y-70917705D01*
X126990000Y-72487677D01*
X126986324Y-72525000D01*
X126990000Y-72562322D01*
X126990000Y-72562332D01*
X127000997Y-72673985D01*
X127027797Y-72762333D01*
X127044454Y-72817246D01*
X127115026Y-72949276D01*
X127152103Y-72994454D01*
X127209999Y-73065001D01*
X127239003Y-73088804D01*
X127526312Y-73376114D01*
X127490000Y-73558665D01*
X127490000Y-73841335D01*
X127545147Y-74118574D01*
X127653320Y-74379727D01*
X127810363Y-74614759D01*
X128010241Y-74814637D01*
X128245273Y-74971680D01*
X128506426Y-75079853D01*
X128783665Y-75135000D01*
X129066335Y-75135000D01*
X129343574Y-75079853D01*
X129604727Y-74971680D01*
X129839759Y-74814637D01*
X130039637Y-74614759D01*
X130196680Y-74379727D01*
X130304853Y-74118574D01*
X130360000Y-73841335D01*
X130360000Y-73558665D01*
X130304853Y-73281426D01*
X130196680Y-73020273D01*
X130039637Y-72785241D01*
X129839759Y-72585363D01*
X129604727Y-72428320D01*
X129343574Y-72320147D01*
X129066335Y-72265000D01*
X128783665Y-72265000D01*
X128601114Y-72301312D01*
X128510000Y-72210199D01*
X128510000Y-68984991D01*
X128645001Y-68984991D01*
X128645001Y-69277511D01*
X128702069Y-69564409D01*
X128814011Y-69834662D01*
X128976526Y-70077883D01*
X129183369Y-70284726D01*
X129426590Y-70447241D01*
X129696843Y-70559183D01*
X129983741Y-70616251D01*
X130276261Y-70616251D01*
X130563159Y-70559183D01*
X130833412Y-70447241D01*
X131076633Y-70284726D01*
X131283476Y-70077883D01*
X131445991Y-69834662D01*
X131557933Y-69564409D01*
X131615001Y-69277511D01*
X131615001Y-68984991D01*
X131557933Y-68698093D01*
X131445991Y-68427840D01*
X131283476Y-68184619D01*
X131076633Y-67977776D01*
X130833412Y-67815261D01*
X130563159Y-67703319D01*
X130276261Y-67646251D01*
X129983741Y-67646251D01*
X129696843Y-67703319D01*
X129426590Y-67815261D01*
X129183369Y-67977776D01*
X128976526Y-68184619D01*
X128814011Y-68427840D01*
X128702069Y-68698093D01*
X128645001Y-68984991D01*
X128510000Y-68984991D01*
X128510000Y-68427571D01*
X128513676Y-68390248D01*
X128510000Y-68352925D01*
X128510000Y-68352915D01*
X128499003Y-68241262D01*
X128455546Y-68098001D01*
X128406772Y-68006752D01*
X128384974Y-67965971D01*
X128313799Y-67879245D01*
X128290001Y-67850247D01*
X128261003Y-67826449D01*
X126514807Y-66080254D01*
X126491004Y-66051250D01*
X126375279Y-65956277D01*
X126243250Y-65885705D01*
X126099989Y-65842248D01*
X125988336Y-65831251D01*
X125988325Y-65831251D01*
X125951003Y-65827575D01*
X125913681Y-65831251D01*
X122803149Y-65831251D01*
X122777538Y-65769420D01*
X122587664Y-65485253D01*
X122345999Y-65243588D01*
X122061832Y-65053714D01*
X121746082Y-64922926D01*
X121410884Y-64856251D01*
X121069118Y-64856251D01*
X120733920Y-64922926D01*
X120418170Y-65053714D01*
X120134003Y-65243588D01*
X119892338Y-65485253D01*
X119702464Y-65769420D01*
X119571676Y-66085170D01*
X119505001Y-66420368D01*
X119505001Y-66762134D01*
X119571676Y-67097332D01*
X119702464Y-67413082D01*
X119858262Y-67646251D01*
X119823741Y-67646251D01*
X119536843Y-67703319D01*
X119266590Y-67815261D01*
X119023369Y-67977776D01*
X118816526Y-68184619D01*
X118654011Y-68427840D01*
X118542069Y-68698093D01*
X118510000Y-68859314D01*
X118510000Y-64953711D01*
X118553937Y-64909774D01*
X118667205Y-64740256D01*
X118745226Y-64551898D01*
X118785000Y-64351939D01*
X118785000Y-64148061D01*
X118745226Y-63948102D01*
X118667205Y-63759744D01*
X118553937Y-63590226D01*
X118409774Y-63446063D01*
X118320257Y-63386250D01*
X124530394Y-63386250D01*
X124504774Y-63448102D01*
X124465000Y-63648061D01*
X124465000Y-63851939D01*
X124504774Y-64051898D01*
X124582795Y-64240256D01*
X124696063Y-64409774D01*
X124840226Y-64553937D01*
X125009744Y-64667205D01*
X125198102Y-64745226D01*
X125398061Y-64785000D01*
X125601939Y-64785000D01*
X125601963Y-64784995D01*
X125652265Y-64800254D01*
X125763918Y-64811251D01*
X125763927Y-64811251D01*
X125801250Y-64814927D01*
X125838573Y-64811251D01*
X126026853Y-64811251D01*
X126052464Y-64873082D01*
X126242338Y-65157249D01*
X126484003Y-65398914D01*
X126768170Y-65588788D01*
X127083920Y-65719576D01*
X127419118Y-65786251D01*
X127760884Y-65786251D01*
X128096082Y-65719576D01*
X128411832Y-65588788D01*
X128695999Y-65398914D01*
X128937664Y-65157249D01*
X129127538Y-64873082D01*
X129153149Y-64811251D01*
X133725038Y-64811251D01*
X133696063Y-64840226D01*
X133582795Y-65009744D01*
X133504774Y-65198102D01*
X133465000Y-65398061D01*
X133465000Y-65601939D01*
X133504774Y-65801898D01*
X133582795Y-65990256D01*
X133696063Y-66159774D01*
X133740001Y-66203712D01*
X133740000Y-67731427D01*
X133736324Y-67768750D01*
X133740000Y-67806072D01*
X133740000Y-67806082D01*
X133750997Y-67917735D01*
X133778000Y-68006752D01*
X133794454Y-68060996D01*
X133865026Y-68193026D01*
X133904613Y-68241262D01*
X133959999Y-68308751D01*
X133989003Y-68332554D01*
X139111928Y-73455480D01*
X139111928Y-74618750D01*
X139124188Y-74743232D01*
X139160498Y-74862930D01*
X139219463Y-74973244D01*
X139298815Y-75069935D01*
X139395506Y-75149287D01*
X139505820Y-75208252D01*
X139625518Y-75244562D01*
X139750000Y-75256822D01*
X140913270Y-75256822D01*
X141417451Y-75761003D01*
X141441249Y-75790001D01*
X141556974Y-75884974D01*
X141689003Y-75955546D01*
X141832264Y-75999003D01*
X141943917Y-76010000D01*
X141943926Y-76010000D01*
X141981249Y-76013676D01*
X142018572Y-76010000D01*
X158412678Y-76010000D01*
X158450000Y-76013676D01*
X158487322Y-76010000D01*
X158487333Y-76010000D01*
X158598986Y-75999003D01*
X158742247Y-75955546D01*
X158874276Y-75884974D01*
X158990001Y-75790001D01*
X159013804Y-75760997D01*
X159636729Y-75138072D01*
X160800000Y-75138072D01*
X160924482Y-75125812D01*
X161044180Y-75089502D01*
X161154494Y-75030537D01*
X161251185Y-74951185D01*
X161330537Y-74854494D01*
X161389502Y-74744180D01*
X161425812Y-74624482D01*
X161438072Y-74500000D01*
X161438072Y-72900000D01*
X161425812Y-72775518D01*
X161389502Y-72655820D01*
X161330537Y-72545506D01*
X161251185Y-72448815D01*
X161154494Y-72369463D01*
X161044180Y-72310498D01*
X160924482Y-72274188D01*
X160800000Y-72261928D01*
X159200000Y-72261928D01*
X159075518Y-72274188D01*
X158955820Y-72310498D01*
X158845506Y-72369463D01*
X158748815Y-72448815D01*
X158669463Y-72545506D01*
X158610498Y-72655820D01*
X158574188Y-72775518D01*
X158561928Y-72900000D01*
X158561928Y-74063271D01*
X158135199Y-74490000D01*
X149625191Y-74490000D01*
X149729853Y-74237324D01*
X149785000Y-73960085D01*
X149785000Y-73677415D01*
X149729853Y-73400176D01*
X149621680Y-73139023D01*
X149464637Y-72903991D01*
X149264759Y-72704113D01*
X149029727Y-72547070D01*
X148768574Y-72438897D01*
X148491335Y-72383750D01*
X148208665Y-72383750D01*
X148026113Y-72420062D01*
X148010000Y-72403949D01*
X148010000Y-69583556D01*
X148114011Y-69834662D01*
X148276526Y-70077883D01*
X148483369Y-70284726D01*
X148726590Y-70447241D01*
X148996843Y-70559183D01*
X149283741Y-70616251D01*
X149576261Y-70616251D01*
X149863159Y-70559183D01*
X150133412Y-70447241D01*
X150376633Y-70284726D01*
X150583476Y-70077883D01*
X150745991Y-69834662D01*
X150857933Y-69564409D01*
X150915001Y-69277511D01*
X150915001Y-68984991D01*
X150857933Y-68698093D01*
X150745991Y-68427840D01*
X150583476Y-68184619D01*
X150376633Y-67977776D01*
X150133412Y-67815261D01*
X149863159Y-67703319D01*
X149576261Y-67646251D01*
X149283741Y-67646251D01*
X148996843Y-67703319D01*
X148726590Y-67815261D01*
X148483369Y-67977776D01*
X148276526Y-68184619D01*
X148114011Y-68427840D01*
X148010000Y-68678946D01*
X148010000Y-68627573D01*
X148013676Y-68590248D01*
X148010000Y-68552923D01*
X148010000Y-68552915D01*
X147999003Y-68441262D01*
X147955546Y-68298001D01*
X147884974Y-68165972D01*
X147790001Y-68050247D01*
X147761003Y-68026449D01*
X145917482Y-66182929D01*
X146057014Y-66225255D01*
X146168667Y-66236252D01*
X146168675Y-66236252D01*
X146206000Y-66239928D01*
X146243325Y-66236252D01*
X158132873Y-66236252D01*
X158096250Y-66420368D01*
X158096250Y-66762134D01*
X158162925Y-67097332D01*
X158293713Y-67413082D01*
X158449511Y-67646251D01*
X158414990Y-67646251D01*
X158128092Y-67703319D01*
X157857839Y-67815261D01*
X157614618Y-67977776D01*
X157407775Y-68184619D01*
X157245260Y-68427840D01*
X157133318Y-68698093D01*
X157076250Y-68984991D01*
X157076250Y-69277511D01*
X157133318Y-69564409D01*
X157245260Y-69834662D01*
X157407775Y-70077883D01*
X157614618Y-70284726D01*
X157857839Y-70447241D01*
X158128092Y-70559183D01*
X158414990Y-70616251D01*
X158707510Y-70616251D01*
X158994408Y-70559183D01*
X159264661Y-70447241D01*
X159507882Y-70284726D01*
X159714725Y-70077883D01*
X159877240Y-69834662D01*
X159989182Y-69564409D01*
X160046250Y-69277511D01*
X160046250Y-68984991D01*
X159989182Y-68698093D01*
X159877240Y-68427840D01*
X159809360Y-68326251D01*
X160002133Y-68326251D01*
X160337331Y-68259576D01*
X160653081Y-68128788D01*
X160937248Y-67938914D01*
X161178913Y-67697249D01*
X161368787Y-67413082D01*
X161394398Y-67351251D01*
X161694797Y-67351251D01*
X161594512Y-67451536D01*
X161306143Y-67883110D01*
X161107511Y-68362650D01*
X161006250Y-68871726D01*
X161006250Y-69390776D01*
X161107511Y-69899852D01*
X161306143Y-70379392D01*
X161594512Y-70810966D01*
X161961535Y-71177989D01*
X162393109Y-71466358D01*
X162872649Y-71664990D01*
X163381725Y-71766251D01*
X163900775Y-71766251D01*
X164409851Y-71664990D01*
X164889391Y-71466358D01*
X165320965Y-71177989D01*
X165490000Y-71008954D01*
X165490000Y-72112677D01*
X165486324Y-72150000D01*
X165490000Y-72187322D01*
X165490000Y-72187332D01*
X165500997Y-72298985D01*
X165525778Y-72380678D01*
X165544454Y-72442246D01*
X165615026Y-72574276D01*
X165654871Y-72622826D01*
X165709999Y-72690001D01*
X165739003Y-72713804D01*
X166401312Y-73376114D01*
X166365000Y-73558665D01*
X166365000Y-73841335D01*
X166420147Y-74118574D01*
X166528320Y-74379727D01*
X166685363Y-74614759D01*
X166885241Y-74814637D01*
X167120273Y-74971680D01*
X167381426Y-75079853D01*
X167658665Y-75135000D01*
X167941335Y-75135000D01*
X168218574Y-75079853D01*
X168479727Y-74971680D01*
X168714759Y-74814637D01*
X168914637Y-74614759D01*
X169071680Y-74379727D01*
X169179853Y-74118574D01*
X169235000Y-73841335D01*
X169235000Y-73558665D01*
X169179853Y-73281426D01*
X169071680Y-73020273D01*
X168914637Y-72785241D01*
X168714759Y-72585363D01*
X168479727Y-72428320D01*
X168218574Y-72320147D01*
X167941335Y-72265000D01*
X167658665Y-72265000D01*
X167476114Y-72301312D01*
X167010000Y-71835199D01*
X167010000Y-68984991D01*
X167236250Y-68984991D01*
X167236250Y-69277511D01*
X167293318Y-69564409D01*
X167405260Y-69834662D01*
X167567775Y-70077883D01*
X167774618Y-70284726D01*
X168017839Y-70447241D01*
X168288092Y-70559183D01*
X168574990Y-70616251D01*
X168867510Y-70616251D01*
X169154408Y-70559183D01*
X169424661Y-70447241D01*
X169667882Y-70284726D01*
X169874725Y-70077883D01*
X170037240Y-69834662D01*
X170149182Y-69564409D01*
X170206250Y-69277511D01*
X170206250Y-68984991D01*
X170149182Y-68698093D01*
X170037240Y-68427840D01*
X169874725Y-68184619D01*
X169667882Y-67977776D01*
X169424661Y-67815261D01*
X169154408Y-67703319D01*
X168867510Y-67646251D01*
X168574990Y-67646251D01*
X168288092Y-67703319D01*
X168017839Y-67815261D01*
X167774618Y-67977776D01*
X167567775Y-68184619D01*
X167405260Y-68427840D01*
X167293318Y-68698093D01*
X167236250Y-68984991D01*
X167010000Y-68984991D01*
X167010000Y-68336321D01*
X167013676Y-68298998D01*
X167010000Y-68261675D01*
X167010000Y-68261666D01*
X166999003Y-68150013D01*
X166955546Y-68006752D01*
X166884974Y-67874723D01*
X166864887Y-67850247D01*
X166813799Y-67787995D01*
X166813795Y-67787991D01*
X166790001Y-67758998D01*
X166761008Y-67735204D01*
X165106055Y-66080253D01*
X165082253Y-66051250D01*
X164966528Y-65956277D01*
X164834499Y-65885705D01*
X164691238Y-65842248D01*
X164579585Y-65831251D01*
X164579574Y-65831251D01*
X164542252Y-65827575D01*
X164504930Y-65831251D01*
X161394398Y-65831251D01*
X161368787Y-65769420D01*
X161178913Y-65485253D01*
X160937248Y-65243588D01*
X160653081Y-65053714D01*
X160427872Y-64960429D01*
X160577050Y-64811251D01*
X164618102Y-64811251D01*
X164643713Y-64873082D01*
X164833587Y-65157249D01*
X165075252Y-65398914D01*
X165359419Y-65588788D01*
X165675169Y-65719576D01*
X166010367Y-65786251D01*
X166352133Y-65786251D01*
X166687331Y-65719576D01*
X167003081Y-65588788D01*
X167287248Y-65398914D01*
X167528913Y-65157249D01*
X167718787Y-64873082D01*
X167849575Y-64557332D01*
X167916250Y-64222134D01*
X167916250Y-63880368D01*
X167849575Y-63545170D01*
X167718787Y-63229420D01*
X167528913Y-62945253D01*
X167287248Y-62703588D01*
X167003081Y-62513714D01*
X166687331Y-62382926D01*
X166352133Y-62316251D01*
X166010367Y-62316251D01*
X165675169Y-62382926D01*
X165359419Y-62513714D01*
X165075252Y-62703588D01*
X164833587Y-62945253D01*
X164643713Y-63229420D01*
X164618102Y-63291251D01*
X160299573Y-63291251D01*
X160262248Y-63287575D01*
X160224923Y-63291251D01*
X160224915Y-63291251D01*
X160113262Y-63302248D01*
X159970001Y-63345705D01*
X159837972Y-63416277D01*
X159722247Y-63511250D01*
X159698449Y-63540248D01*
X158522446Y-64716252D01*
X148492499Y-64716252D01*
X148558326Y-64557332D01*
X148625001Y-64222134D01*
X148625001Y-63880368D01*
X148558326Y-63545170D01*
X148427538Y-63229420D01*
X148237664Y-62945253D01*
X147995999Y-62703588D01*
X147711832Y-62513714D01*
X147396082Y-62382926D01*
X147060884Y-62316251D01*
X146719118Y-62316251D01*
X146383920Y-62382926D01*
X146322089Y-62408537D01*
X146028804Y-62115253D01*
X146005001Y-62086249D01*
X145889276Y-61991276D01*
X145757247Y-61920704D01*
X145613986Y-61877247D01*
X145502333Y-61866250D01*
X145502322Y-61866250D01*
X145465000Y-61862574D01*
X145427678Y-61866250D01*
X135468570Y-61866250D01*
X135495226Y-61801898D01*
X135535000Y-61601939D01*
X135535000Y-61398061D01*
X135495226Y-61198102D01*
X135417205Y-61009744D01*
X135303937Y-60840226D01*
X135260000Y-60796289D01*
X135260000Y-59223880D01*
X135263677Y-59186547D01*
X135249003Y-59037561D01*
X135205546Y-58894300D01*
X135134974Y-58762271D01*
X135063799Y-58675544D01*
X135040001Y-58646546D01*
X135011003Y-58622748D01*
X133747988Y-57359734D01*
X133747988Y-57297596D01*
X133708214Y-57097637D01*
X133630193Y-56909279D01*
X133516925Y-56739761D01*
X133372762Y-56595598D01*
X133203244Y-56482330D01*
X133014886Y-56404309D01*
X132814927Y-56364535D01*
X132611049Y-56364535D01*
X132411090Y-56404309D01*
X132222732Y-56482330D01*
X132053214Y-56595598D01*
X131909051Y-56739761D01*
X131795783Y-56909279D01*
X131717762Y-57097637D01*
X131677988Y-57297596D01*
X131677988Y-57501474D01*
X131717762Y-57701433D01*
X131752058Y-57784231D01*
X131696063Y-57840226D01*
X131582795Y-58009744D01*
X131504774Y-58198102D01*
X131465000Y-58398061D01*
X131465000Y-58460198D01*
X130666504Y-59258695D01*
X130553937Y-59090226D01*
X130409774Y-58946063D01*
X130240256Y-58832795D01*
X130051898Y-58754774D01*
X129851939Y-58715000D01*
X129648061Y-58715000D01*
X129448102Y-58754774D01*
X129259744Y-58832795D01*
X129090226Y-58946063D01*
X129046289Y-58990000D01*
X123223711Y-58990000D01*
X123303937Y-58909774D01*
X123417205Y-58740256D01*
X123495226Y-58551898D01*
X123535000Y-58351939D01*
X123535000Y-58289801D01*
X127314802Y-54510000D01*
X131888349Y-54510000D01*
X131942487Y-54591024D01*
X132086650Y-54735187D01*
X132256168Y-54848455D01*
X132444526Y-54926476D01*
X132644485Y-54966250D01*
X132848363Y-54966250D01*
X133048322Y-54926476D01*
X133236680Y-54848455D01*
X133406198Y-54735187D01*
X133550361Y-54591024D01*
X133663629Y-54421506D01*
X133741650Y-54233148D01*
X133781424Y-54033189D01*
X133781424Y-53829311D01*
X133741650Y-53629352D01*
X133663629Y-53440994D01*
X133550361Y-53271476D01*
X133406198Y-53127313D01*
X133236680Y-53014045D01*
X133048322Y-52936024D01*
X132848363Y-52896250D01*
X132644485Y-52896250D01*
X132444526Y-52936024D01*
X132314217Y-52990000D01*
X127037322Y-52990000D01*
X126999999Y-52986324D01*
X126962676Y-52990000D01*
X126962667Y-52990000D01*
X126851014Y-53000997D01*
X126707753Y-53044454D01*
X126575723Y-53115026D01*
X126533991Y-53149275D01*
X126459999Y-53209999D01*
X126436201Y-53238997D01*
X122460199Y-57215000D01*
X122398061Y-57215000D01*
X122198102Y-57254774D01*
X122009744Y-57332795D01*
X121840226Y-57446063D01*
X121696063Y-57590226D01*
X121582795Y-57759744D01*
X121504774Y-57948102D01*
X121465000Y-58148061D01*
X121465000Y-58351939D01*
X121504774Y-58551898D01*
X121582795Y-58740256D01*
X121696063Y-58909774D01*
X121776289Y-58990000D01*
X110537322Y-58990000D01*
X110499999Y-58986324D01*
X110462676Y-58990000D01*
X110462667Y-58990000D01*
X110351014Y-59000997D01*
X110207753Y-59044454D01*
X110075724Y-59115026D01*
X109959999Y-59209999D01*
X109936201Y-59238997D01*
X107770248Y-61404951D01*
X107741250Y-61428749D01*
X107717452Y-61457747D01*
X107717451Y-61457748D01*
X107646276Y-61544474D01*
X107575704Y-61676504D01*
X107553410Y-61750000D01*
X107532248Y-61819764D01*
X107526586Y-61877247D01*
X107517574Y-61968750D01*
X107521251Y-62006082D01*
X107521251Y-62488102D01*
X107459419Y-62513714D01*
X107175252Y-62703588D01*
X106933587Y-62945253D01*
X106743713Y-63229420D01*
X106612925Y-63545170D01*
X106546250Y-63880368D01*
X106546250Y-64222134D01*
X106612925Y-64557332D01*
X106743713Y-64873082D01*
X106933587Y-65157249D01*
X107175252Y-65398914D01*
X107459419Y-65588788D01*
X107775169Y-65719576D01*
X108110367Y-65786251D01*
X108452133Y-65786251D01*
X108787331Y-65719576D01*
X109103081Y-65588788D01*
X109387248Y-65398914D01*
X109628913Y-65157249D01*
X109818787Y-64873082D01*
X109949575Y-64557332D01*
X110016250Y-64222134D01*
X110016250Y-63880368D01*
X109949575Y-63545170D01*
X109923964Y-63483339D01*
X110021053Y-63386250D01*
X117179743Y-63386250D01*
X117090226Y-63446063D01*
X116946063Y-63590226D01*
X116832795Y-63759744D01*
X116754774Y-63948102D01*
X116715000Y-64148061D01*
X116715000Y-64351939D01*
X116754774Y-64551898D01*
X116832795Y-64740256D01*
X116946063Y-64909774D01*
X116990001Y-64953712D01*
X116990000Y-69462675D01*
X116986324Y-69500000D01*
X116990000Y-69537322D01*
X116990000Y-69537332D01*
X117000997Y-69648985D01*
X117044454Y-69792246D01*
X117115026Y-69924276D01*
X117154871Y-69972826D01*
X117209999Y-70040001D01*
X117239003Y-70063804D01*
X119768771Y-72593572D01*
X119735498Y-72655820D01*
X119699188Y-72775518D01*
X119686928Y-72900000D01*
X119686928Y-74063271D01*
X119260199Y-74490000D01*
X110922998Y-74490000D01*
X110996680Y-74379727D01*
X111104853Y-74118574D01*
X111160000Y-73841335D01*
X111160000Y-73558665D01*
X111104853Y-73281426D01*
X110996680Y-73020273D01*
X110839637Y-72785241D01*
X110639759Y-72585363D01*
X110404727Y-72428320D01*
X110143574Y-72320147D01*
X109866335Y-72265000D01*
X109583665Y-72265000D01*
X109510000Y-72279653D01*
X109510000Y-69841756D01*
X109667775Y-70077883D01*
X109874618Y-70284726D01*
X110117839Y-70447241D01*
X110388092Y-70559183D01*
X110674990Y-70616251D01*
X110967510Y-70616251D01*
X111254408Y-70559183D01*
X111524661Y-70447241D01*
X111767882Y-70284726D01*
X111974725Y-70077883D01*
X112137240Y-69834662D01*
X112249182Y-69564409D01*
X112306250Y-69277511D01*
X112306250Y-68984991D01*
X112249182Y-68698093D01*
X112137240Y-68427840D01*
X111974725Y-68184619D01*
X111767882Y-67977776D01*
X111524661Y-67815261D01*
X111254408Y-67703319D01*
X110967510Y-67646251D01*
X110674990Y-67646251D01*
X110388092Y-67703319D01*
X110117839Y-67815261D01*
X109874618Y-67977776D01*
X109667775Y-68184619D01*
X109505260Y-68427840D01*
X109480255Y-68488208D01*
X109455546Y-68406752D01*
X109384974Y-68274723D01*
X109290001Y-68158998D01*
X109261003Y-68135200D01*
X107206056Y-66080254D01*
X107182253Y-66051250D01*
X107066528Y-65956277D01*
X106934499Y-65885705D01*
X106791238Y-65842248D01*
X106679585Y-65831251D01*
X106679574Y-65831251D01*
X106642252Y-65827575D01*
X106604930Y-65831251D01*
X103494398Y-65831251D01*
X103468787Y-65769420D01*
X103278913Y-65485253D01*
X103037248Y-65243588D01*
X102753081Y-65053714D01*
X102437331Y-64922926D01*
X102102133Y-64856251D01*
X101760367Y-64856251D01*
X101425169Y-64922926D01*
X101109419Y-65053714D01*
X100825252Y-65243588D01*
X100583587Y-65485253D01*
X100393713Y-65769420D01*
X100262925Y-66085170D01*
X100196250Y-66420368D01*
X100196250Y-66762134D01*
X100262925Y-67097332D01*
X100393713Y-67413082D01*
X100549511Y-67646251D01*
X100514990Y-67646251D01*
X100228092Y-67703319D01*
X99957839Y-67815261D01*
X99714618Y-67977776D01*
X99507775Y-68184619D01*
X99345260Y-68427840D01*
X99233318Y-68698093D01*
X99176250Y-68984991D01*
X95310000Y-68984991D01*
X95310000Y-59657279D01*
X95331007Y-59443033D01*
X95383852Y-59268002D01*
X95469690Y-59106565D01*
X95585250Y-58964873D01*
X95726127Y-58848329D01*
X95886960Y-58761367D01*
X96061625Y-58707299D01*
X96273787Y-58685000D01*
X119992581Y-58685000D01*
X120025000Y-58688193D01*
X120057419Y-58685000D01*
X120154383Y-58675450D01*
X120278793Y-58637710D01*
X120393450Y-58576425D01*
X120493948Y-58493948D01*
X120576425Y-58393450D01*
X120637710Y-58278793D01*
X120675450Y-58154383D01*
X120688193Y-58025000D01*
X120685000Y-57992581D01*
X120685000Y-53648061D01*
X121465000Y-53648061D01*
X121465000Y-53851939D01*
X121504774Y-54051898D01*
X121582795Y-54240256D01*
X121696063Y-54409774D01*
X121840226Y-54553937D01*
X122009744Y-54667205D01*
X122198102Y-54745226D01*
X122398061Y-54785000D01*
X122601939Y-54785000D01*
X122801898Y-54745226D01*
X122990256Y-54667205D01*
X123159774Y-54553937D01*
X123303937Y-54409774D01*
X123417205Y-54240256D01*
X123495226Y-54051898D01*
X123535000Y-53851939D01*
X123535000Y-53648061D01*
X123495226Y-53448102D01*
X123417205Y-53259744D01*
X123303937Y-53090226D01*
X123260000Y-53046289D01*
X123260000Y-46648061D01*
X125965000Y-46648061D01*
X125965000Y-46851939D01*
X126004774Y-47051898D01*
X126082795Y-47240256D01*
X126196063Y-47409774D01*
X126340226Y-47553937D01*
X126490001Y-47654013D01*
X126490000Y-50796289D01*
X126446063Y-50840226D01*
X126332795Y-51009744D01*
X126254774Y-51198102D01*
X126215000Y-51398061D01*
X126215000Y-51601939D01*
X126254774Y-51801898D01*
X126332795Y-51990256D01*
X126446063Y-52159774D01*
X126590226Y-52303937D01*
X126759744Y-52417205D01*
X126948102Y-52495226D01*
X127148061Y-52535000D01*
X127351939Y-52535000D01*
X127551898Y-52495226D01*
X127740256Y-52417205D01*
X127909774Y-52303937D01*
X128053937Y-52159774D01*
X128167205Y-51990256D01*
X128245226Y-51801898D01*
X128285000Y-51601939D01*
X128285000Y-51398061D01*
X128245226Y-51198102D01*
X128167205Y-51009744D01*
X128053937Y-50840226D01*
X128010000Y-50796289D01*
X128010000Y-47037322D01*
X128013676Y-46999999D01*
X128010985Y-46972673D01*
X128035000Y-46851939D01*
X128035000Y-46648061D01*
X128030028Y-46623061D01*
X130715000Y-46623061D01*
X130715000Y-46826939D01*
X130754774Y-47026898D01*
X130832795Y-47215256D01*
X130946063Y-47384774D01*
X131090226Y-47528937D01*
X131259744Y-47642205D01*
X131448102Y-47720226D01*
X131530853Y-47736686D01*
X131446063Y-47821476D01*
X131332795Y-47990994D01*
X131254774Y-48179352D01*
X131215000Y-48379311D01*
X131215000Y-48583189D01*
X131239015Y-48703924D01*
X131236324Y-48731250D01*
X131240001Y-48768582D01*
X131240000Y-49546289D01*
X131196063Y-49590226D01*
X131082795Y-49759744D01*
X131004774Y-49948102D01*
X130965000Y-50148061D01*
X130965000Y-50351939D01*
X131004774Y-50551898D01*
X131082795Y-50740256D01*
X131196063Y-50909774D01*
X131340226Y-51053937D01*
X131509744Y-51167205D01*
X131698102Y-51245226D01*
X131898061Y-51285000D01*
X132101939Y-51285000D01*
X132301898Y-51245226D01*
X132490256Y-51167205D01*
X132659774Y-51053937D01*
X132803937Y-50909774D01*
X132917205Y-50740256D01*
X132995226Y-50551898D01*
X133035000Y-50351939D01*
X133035000Y-50148061D01*
X132995226Y-49948102D01*
X132917205Y-49759744D01*
X132803937Y-49590226D01*
X132760000Y-49546289D01*
X132760000Y-49385263D01*
X132909774Y-49285187D01*
X133053937Y-49141024D01*
X133068871Y-49118673D01*
X136990001Y-53039804D01*
X136990000Y-58796289D01*
X136946063Y-58840226D01*
X136832795Y-59009744D01*
X136754774Y-59198102D01*
X136715000Y-59398061D01*
X136715000Y-59601939D01*
X136754774Y-59801898D01*
X136832795Y-59990256D01*
X136946063Y-60159774D01*
X137090226Y-60303937D01*
X137259744Y-60417205D01*
X137448102Y-60495226D01*
X137648061Y-60535000D01*
X137851939Y-60535000D01*
X138051898Y-60495226D01*
X138240256Y-60417205D01*
X138409774Y-60303937D01*
X138553937Y-60159774D01*
X138667205Y-59990256D01*
X138745226Y-59801898D01*
X138785000Y-59601939D01*
X138785000Y-59398061D01*
X138745226Y-59198102D01*
X138667205Y-59009744D01*
X138553937Y-58840226D01*
X138510000Y-58796289D01*
X138510000Y-52762322D01*
X138513676Y-52724999D01*
X138510000Y-52687676D01*
X138510000Y-52687667D01*
X138499003Y-52576014D01*
X138455546Y-52432753D01*
X138384974Y-52300724D01*
X138371811Y-52284685D01*
X138313799Y-52213996D01*
X138313795Y-52213992D01*
X138290001Y-52184999D01*
X138261008Y-52161205D01*
X132785000Y-46685199D01*
X132785000Y-46623061D01*
X132745226Y-46423102D01*
X132667205Y-46234744D01*
X132553937Y-46065226D01*
X132409774Y-45921063D01*
X132240256Y-45807795D01*
X132051898Y-45729774D01*
X131851939Y-45690000D01*
X131648061Y-45690000D01*
X131448102Y-45729774D01*
X131259744Y-45807795D01*
X131090226Y-45921063D01*
X130946063Y-46065226D01*
X130832795Y-46234744D01*
X130754774Y-46423102D01*
X130715000Y-46623061D01*
X128030028Y-46623061D01*
X127995226Y-46448102D01*
X127917205Y-46259744D01*
X127803937Y-46090226D01*
X127659774Y-45946063D01*
X127490256Y-45832795D01*
X127301898Y-45754774D01*
X127101939Y-45715000D01*
X126898061Y-45715000D01*
X126698102Y-45754774D01*
X126509744Y-45832795D01*
X126340226Y-45946063D01*
X126196063Y-46090226D01*
X126082795Y-46259744D01*
X126004774Y-46448102D01*
X125965000Y-46648061D01*
X123260000Y-46648061D01*
X123260000Y-43814801D01*
X123314801Y-43760000D01*
X138712678Y-43760000D01*
X138750000Y-43763676D01*
X138787322Y-43760000D01*
X138787333Y-43760000D01*
X138898986Y-43749003D01*
X139042247Y-43705546D01*
X139174276Y-43634974D01*
X139290001Y-43540001D01*
X139313804Y-43510997D01*
X139760998Y-43063803D01*
X139790001Y-43040001D01*
X139884974Y-42924276D01*
X139955546Y-42792247D01*
X139999003Y-42648986D01*
X140010000Y-42537333D01*
X140010000Y-42537325D01*
X140013676Y-42500000D01*
X140010000Y-42462675D01*
X140010000Y-41287333D01*
X140013677Y-41250000D01*
X139999003Y-41101014D01*
X139955546Y-40957753D01*
X139884974Y-40825724D01*
X139813799Y-40738997D01*
X139790001Y-40709999D01*
X139761003Y-40686201D01*
X139303639Y-40228838D01*
X139406028Y-40125061D01*
X139555972Y-39897349D01*
X139658611Y-39644760D01*
X139710000Y-39377000D01*
X139710000Y-38127000D01*
X138452000Y-38127000D01*
X138452000Y-38147000D01*
X138198000Y-38147000D01*
X138198000Y-38127000D01*
X136940000Y-38127000D01*
X136940000Y-39219119D01*
X136879494Y-39169463D01*
X136769180Y-39110498D01*
X136649482Y-39074188D01*
X136525000Y-39061928D01*
X136025000Y-39061928D01*
X135900518Y-39074188D01*
X135875000Y-39081929D01*
X135849482Y-39074188D01*
X135725000Y-39061928D01*
X135225000Y-39061928D01*
X135100518Y-39074188D01*
X135075000Y-39081929D01*
X135049482Y-39074188D01*
X134925000Y-39061928D01*
X134425000Y-39061928D01*
X134300518Y-39074188D01*
X134275000Y-39081929D01*
X134249482Y-39074188D01*
X134125000Y-39061928D01*
X133625000Y-39061928D01*
X133500518Y-39074188D01*
X133476072Y-39081604D01*
X133459229Y-39076206D01*
X133356750Y-39065000D01*
X133198000Y-39223750D01*
X133198000Y-39228967D01*
X133173815Y-39248815D01*
X133094463Y-39345506D01*
X133035498Y-39455820D01*
X132999188Y-39575518D01*
X132986928Y-39700000D01*
X132986928Y-40547000D01*
X132952000Y-40547000D01*
X132952000Y-40527000D01*
X132348750Y-40527000D01*
X132190000Y-40685750D01*
X132187006Y-41090046D01*
X132197323Y-41214704D01*
X132231761Y-41334954D01*
X132288997Y-41446174D01*
X132323834Y-41490000D01*
X124007538Y-41490000D01*
X124035000Y-41351939D01*
X124035000Y-41148061D01*
X123995226Y-40948102D01*
X123917205Y-40759744D01*
X123803937Y-40590226D01*
X123659774Y-40446063D01*
X123490256Y-40332795D01*
X123301898Y-40254774D01*
X123101939Y-40215000D01*
X122898061Y-40215000D01*
X122698102Y-40254774D01*
X122509744Y-40332795D01*
X122340226Y-40446063D01*
X122196063Y-40590226D01*
X122082795Y-40759744D01*
X122004774Y-40948102D01*
X121965000Y-41148061D01*
X121965000Y-41351939D01*
X122004774Y-41551898D01*
X122082795Y-41740256D01*
X122196063Y-41909774D01*
X122240001Y-41953712D01*
X122240001Y-42212658D01*
X122236323Y-42250000D01*
X122250997Y-42398986D01*
X122294454Y-42542247D01*
X122325281Y-42599918D01*
X121988998Y-42936201D01*
X121960000Y-42959999D01*
X121936202Y-42988997D01*
X121936201Y-42988998D01*
X121865026Y-43075724D01*
X121794454Y-43207754D01*
X121750998Y-43351015D01*
X121736324Y-43500000D01*
X121740001Y-43537332D01*
X121740000Y-53046289D01*
X121696063Y-53090226D01*
X121582795Y-53259744D01*
X121504774Y-53448102D01*
X121465000Y-53648061D01*
X120685000Y-53648061D01*
X120685000Y-38127000D01*
X129640000Y-38127000D01*
X129640000Y-39377000D01*
X129691389Y-39644760D01*
X129794028Y-39897349D01*
X129943972Y-40125061D01*
X130135460Y-40319145D01*
X130361132Y-40472142D01*
X130612316Y-40578173D01*
X130683815Y-40592318D01*
X130898000Y-40469656D01*
X130898000Y-38127000D01*
X131152000Y-38127000D01*
X131152000Y-40469656D01*
X131366185Y-40592318D01*
X131437684Y-40578173D01*
X131688868Y-40472142D01*
X131914540Y-40319145D01*
X132106028Y-40125061D01*
X132189145Y-39998835D01*
X132190000Y-40114250D01*
X132348750Y-40273000D01*
X132952000Y-40273000D01*
X132952000Y-39223750D01*
X132793250Y-39065000D01*
X132690771Y-39076206D01*
X132571654Y-39114379D01*
X132462273Y-39175057D01*
X132410000Y-39219339D01*
X132410000Y-38127000D01*
X131152000Y-38127000D01*
X130898000Y-38127000D01*
X129640000Y-38127000D01*
X120685000Y-38127000D01*
X120685000Y-36623000D01*
X129640000Y-36623000D01*
X129640000Y-37873000D01*
X130898000Y-37873000D01*
X130898000Y-37853000D01*
X131152000Y-37853000D01*
X131152000Y-37873000D01*
X132410000Y-37873000D01*
X132410000Y-36623000D01*
X132358611Y-36355240D01*
X132309785Y-36235083D01*
X133175000Y-36238072D01*
X133299482Y-36225812D01*
X133419180Y-36189502D01*
X133529494Y-36130537D01*
X133626185Y-36051185D01*
X133705537Y-35954494D01*
X133764502Y-35844180D01*
X133800812Y-35724482D01*
X133813072Y-35600000D01*
X135536928Y-35600000D01*
X135549188Y-35724482D01*
X135585498Y-35844180D01*
X135644463Y-35954494D01*
X135723815Y-36051185D01*
X135820506Y-36130537D01*
X135930820Y-36189502D01*
X136050518Y-36225812D01*
X136175000Y-36238072D01*
X137040215Y-36235083D01*
X136991389Y-36355240D01*
X136940000Y-36623000D01*
X136940000Y-37873000D01*
X138198000Y-37873000D01*
X138198000Y-37853000D01*
X138452000Y-37853000D01*
X138452000Y-37873000D01*
X139710000Y-37873000D01*
X139710000Y-36623000D01*
X139658611Y-36355240D01*
X139555972Y-36102651D01*
X139406028Y-35874939D01*
X139214540Y-35680855D01*
X139158829Y-35643085D01*
X139163072Y-35600000D01*
X139160000Y-35485750D01*
X139001250Y-35327000D01*
X137477000Y-35327000D01*
X137477000Y-35347000D01*
X137223000Y-35347000D01*
X137223000Y-35327000D01*
X135698750Y-35327000D01*
X135540000Y-35485750D01*
X135536928Y-35600000D01*
X133813072Y-35600000D01*
X133810000Y-35485750D01*
X133651250Y-35327000D01*
X132127000Y-35327000D01*
X132127000Y-35347000D01*
X131873000Y-35347000D01*
X131873000Y-35327000D01*
X130348750Y-35327000D01*
X130190000Y-35485750D01*
X130186928Y-35600000D01*
X130191171Y-35643085D01*
X130135460Y-35680855D01*
X129943972Y-35874939D01*
X129794028Y-36102651D01*
X129691389Y-36355240D01*
X129640000Y-36623000D01*
X120685000Y-36623000D01*
X120685000Y-35085000D01*
X146815000Y-35085000D01*
X146815001Y-57967571D01*
G37*
%TD.AperFunction*%
%TD*%
M02*
