%TF.GenerationSoftware,KiCad,Pcbnew,(5.1.9)-1*%
%TF.CreationDate,2021-01-03T12:45:44+00:00*%
%TF.ProjectId,Mechro_4K_PCB,4d656368-726f-45f3-944b-5f5043422e6b,rev?*%
%TF.SameCoordinates,Original*%
%TF.FileFunction,Legend,Top*%
%TF.FilePolarity,Positive*%
%FSLAX46Y46*%
G04 Gerber Fmt 4.6, Leading zero omitted, Abs format (unit mm)*
G04 Created by KiCad (PCBNEW (5.1.9)-1) date 2021-01-03 12:45:44*
%MOMM*%
%LPD*%
G01*
G04 APERTURE LIST*
%ADD10C,0.200000*%
%ADD11C,0.120000*%
%ADD12C,0.150000*%
G04 APERTURE END LIST*
D10*
%TO.C,J1*%
X138525000Y-40800000D02*
X130825000Y-40800000D01*
X138525000Y-40800000D02*
X138525000Y-34300000D01*
X130825000Y-40800000D02*
X130825000Y-34300000D01*
D11*
%TO.C,K1*%
X156656250Y-62146251D02*
X170626250Y-62146251D01*
X170626250Y-62146251D02*
X170626250Y-76116251D01*
X170626250Y-76116251D02*
X156656250Y-76116251D01*
X156656250Y-76116251D02*
X156656250Y-62146251D01*
%TO.C,K2*%
X118065001Y-62146251D02*
X132035001Y-62146251D01*
X132035001Y-62146251D02*
X132035001Y-76116251D01*
X132035001Y-76116251D02*
X118065001Y-76116251D01*
X118065001Y-76116251D02*
X118065001Y-62146251D01*
%TO.C,K3*%
X137365001Y-76116251D02*
X137365001Y-62146251D01*
X151335001Y-76116251D02*
X137365001Y-76116251D01*
X151335001Y-62146251D02*
X151335001Y-76116251D01*
X137365001Y-62146251D02*
X151335001Y-62146251D01*
%TO.C,K4*%
X98756250Y-76116251D02*
X98756250Y-62146251D01*
X112726250Y-76116251D02*
X98756250Y-76116251D01*
X112726250Y-62146251D02*
X112726250Y-76116251D01*
X98756250Y-62146251D02*
X112726250Y-62146251D01*
%TO.C,K1*%
D12*
X162903154Y-61709631D02*
X162903154Y-60709631D01*
X163474583Y-61709631D02*
X163046011Y-61138203D01*
X163474583Y-60709631D02*
X162903154Y-61281060D01*
X164426964Y-61709631D02*
X163855535Y-61709631D01*
X164141250Y-61709631D02*
X164141250Y-60709631D01*
X164046011Y-60852489D01*
X163950773Y-60947727D01*
X163855535Y-60995346D01*
%TO.C,K2*%
X124311905Y-61709631D02*
X124311905Y-60709631D01*
X124883334Y-61709631D02*
X124454762Y-61138203D01*
X124883334Y-60709631D02*
X124311905Y-61281060D01*
X125264286Y-60804870D02*
X125311905Y-60757251D01*
X125407143Y-60709631D01*
X125645239Y-60709631D01*
X125740477Y-60757251D01*
X125788096Y-60804870D01*
X125835715Y-60900108D01*
X125835715Y-60995346D01*
X125788096Y-61138203D01*
X125216667Y-61709631D01*
X125835715Y-61709631D01*
%TO.C,K3*%
X143611905Y-61709631D02*
X143611905Y-60709631D01*
X144183334Y-61709631D02*
X143754762Y-61138203D01*
X144183334Y-60709631D02*
X143611905Y-61281060D01*
X144516667Y-60709631D02*
X145135715Y-60709631D01*
X144802381Y-61090584D01*
X144945239Y-61090584D01*
X145040477Y-61138203D01*
X145088096Y-61185822D01*
X145135715Y-61281060D01*
X145135715Y-61519155D01*
X145088096Y-61614393D01*
X145040477Y-61662012D01*
X144945239Y-61709631D01*
X144659524Y-61709631D01*
X144564286Y-61662012D01*
X144516667Y-61614393D01*
%TO.C,K4*%
X105003154Y-61709631D02*
X105003154Y-60709631D01*
X105574583Y-61709631D02*
X105146011Y-61138203D01*
X105574583Y-60709631D02*
X105003154Y-61281060D01*
X106431726Y-61042965D02*
X106431726Y-61709631D01*
X106193630Y-60662012D02*
X105955535Y-61376298D01*
X106574583Y-61376298D01*
%TD*%
M02*
