%TF.GenerationSoftware,KiCad,Pcbnew,(5.1.9)-1*%
%TF.CreationDate,2021-01-03T12:45:44+00:00*%
%TF.ProjectId,Mechro_4K_PCB,4d656368-726f-45f3-944b-5f5043422e6b,rev?*%
%TF.SameCoordinates,Original*%
%TF.FileFunction,Soldermask,Top*%
%TF.FilePolarity,Negative*%
%FSLAX46Y46*%
G04 Gerber Fmt 4.6, Leading zero omitted, Abs format (unit mm)*
G04 Created by KiCad (PCBNEW (5.1.9)-1) date 2021-01-03 12:45:44*
%MOMM*%
%LPD*%
G01*
G04 APERTURE LIST*
%ADD10C,1.600000*%
%ADD11R,1.600000X1.600000*%
%ADD12O,1.500000X4.000000*%
%ADD13R,0.500000X1.400000*%
%ADD14R,2.350000X0.800000*%
%ADD15C,2.200000*%
%ADD16C,4.000000*%
%ADD17C,1.700000*%
G04 APERTURE END LIST*
D10*
%TO.C,D1*%
X167800000Y-73700000D03*
D11*
X160000000Y-73700000D03*
%TD*%
%TO.C,D2*%
X121125000Y-73700000D03*
D10*
X128925000Y-73700000D03*
%TD*%
%TO.C,D3*%
X148350000Y-73818750D03*
D11*
X140550000Y-73818750D03*
%TD*%
%TO.C,D4*%
X101925000Y-73700000D03*
D10*
X109725000Y-73700000D03*
%TD*%
D12*
%TO.C,J1*%
X131025000Y-38000000D03*
X138325000Y-38000000D03*
D13*
X133075000Y-40400000D03*
X133875000Y-40400000D03*
X134675000Y-40400000D03*
X135475000Y-40400000D03*
X136275000Y-40400000D03*
D14*
X137350000Y-35200000D03*
X132000000Y-35200000D03*
%TD*%
D15*
%TO.C,K1*%
X166181250Y-64051251D03*
X159831250Y-66591251D03*
D16*
X163641250Y-69131251D03*
D17*
X158561250Y-69131251D03*
X168721250Y-69131251D03*
%TD*%
D15*
%TO.C,K2*%
X127590001Y-64051251D03*
X121240001Y-66591251D03*
D16*
X125050001Y-69131251D03*
D17*
X119970001Y-69131251D03*
X130130001Y-69131251D03*
%TD*%
%TO.C,K3*%
X149430001Y-69131251D03*
X139270001Y-69131251D03*
D16*
X144350001Y-69131251D03*
D15*
X140540001Y-66591251D03*
X146890001Y-64051251D03*
%TD*%
D17*
%TO.C,K4*%
X110821250Y-69131251D03*
X100661250Y-69131251D03*
D16*
X105741250Y-69131251D03*
D15*
X101931250Y-66591251D03*
X108281250Y-64051251D03*
%TD*%
M02*
